<svg width="454" height="331" viewBox="0 0 454 331" fill="none" xmlns="http://www.w3.org/2000/svg">
<path fill-rule="evenodd" clip-rule="evenodd" d="M452.537 124.899C446.926 166.732 440.593 188.829 403.627 232.639C366.661 276.449 197.502 305.269 134.964 305.269C72.4259 305.269 -4.645 257.046 0.219167 201.171C5.08334 145.296 30.4604 99.6282 91.2016 94.0064C153.276 88.2612 207.803 114.866 268.745 100.597C321.433 88.2612 337.553 41.2397 373.741 26.4047C446.926 -3.59811 456.354 96.4393 452.537 124.899Z" fill="#380F05"/>
<path d="M414.886 145.33C412.819 148.835 386.644 166.568 370.767 169.193C367.694 169.701 364.339 169.875 361.67 168.271C360.094 167.323 358.919 165.845 357.803 164.383C355.251 161.04 352.817 157.607 350.506 154.093C349.292 152.246 348.088 150.318 347.675 148.147C346.583 142.398 351.217 137.233 355.798 133.59C366.327 125.216 378.655 119.115 391.699 115.824C394.008 115.242 396.457 114.748 398.744 115.41C402.457 116.484 404.677 120.241 406.094 123.837C407.51 127.433 408.615 131.366 411.447 133.997C412.093 134.598 416.953 141.825 414.886 145.33Z" fill="#FFFEFD"/>
<path fill-rule="evenodd" clip-rule="evenodd" d="M274.241 298.11C248.838 302.455 260.946 283.992 264.449 260.882C270.205 222.91 277.304 165.205 277.304 165.205C277.304 165.205 281.933 253.134 281.933 274.544C281.933 295.954 277.303 297.587 274.241 298.11Z" fill="#FFFEFD"/>
<path d="M247.099 277.19C247.747 283.305 248.431 289.549 251.029 295.122C249.611 282.502 248.194 269.883 246.776 257.263C246.601 255.705 246.653 253.721 248.086 253.085C249.299 267.335 251.108 281.534 253.506 295.633C253.79 297.307 251.276 298.263 249.864 297.321C248.452 296.378 248.001 294.542 247.679 292.875C245.34 280.726 244.053 268.374 243.839 256.003C240.86 256.59 238.771 259.478 238.169 262.454C237.566 265.429 238.147 268.503 238.727 271.483C240.595 281.075 242.464 290.668 244.332 300.261C245.206 304.747 246.079 309.383 245.115 313.852C241.407 296.923 238.426 279.836 236.184 262.652C207.734 280.049 171.075 283.284 140.019 271.138C133.236 268.486 126.499 264.971 122.019 259.228C118.49 254.705 116.607 249.089 115.62 243.437C112.116 223.364 119.297 202.889 129.042 184.995C132.74 178.205 136.952 171.133 136.653 163.408C136.551 160.748 135.977 157.803 137.53 155.641C137.75 156.041 127.362 81.7314 131.529 65.2944C141.562 25.7234 174.153 20.3643 195.02 20.8524C209.021 21.1799 297.768 38.8169 310.59 62.8012C327.443 94.3235 323.865 120.826 320.872 138.301C319.981 143.504 277.316 164.822 277.304 164.929C274.865 187.604 258.497 237.012 244.769 255.224C245.546 262.546 246.322 269.868 247.099 277.19Z" fill="#FFFEFD"/>
<path fill-rule="evenodd" clip-rule="evenodd" d="M42.2474 184.927C34.2462 181.733 24.7113 182.68 17.4977 187.386C16.7993 187.841 15.7953 187.334 15.4496 186.576C15.1039 185.818 15.2332 184.936 15.41 184.122C17.7139 173.52 26.8918 165.408 37.0985 161.68C47.3051 157.952 58.4695 157.941 69.3193 158.579C70.3958 158.642 71.5211 158.726 72.4394 159.29C73.3577 159.855 73.9756 161.061 73.5178 162.036C69.2498 171.125 66.0347 180.705 63.9571 190.526C63.6203 192.119 61.9701 193.175 60.345 193.308C58.7199 193.441 57.1275 192.841 55.6526 192.147C51.0563 189.983 46.9658 186.811 42.2474 184.927" fill="#FFFEFD"/>
<path d="M209.933 323.275C214.606 323.144 219.309 324.177 223.497 326.255C222.378 327.864 220.127 328.09 218.168 328.164C201.102 328.812 184.035 329.46 166.969 330.108C166.5 330.049 166.411 329.325 166.743 328.988C167.076 328.652 167.595 328.609 168.067 328.586C184.728 327.774 201.389 326.961 218.049 326.149C215.161 325.884 212.344 324.886 209.933 323.275ZM293.375 280.946C293.759 280.378 294.627 280.077 295.147 280.525C293.097 290.016 291.046 299.508 288.995 308.999C291.025 307.491 293.59 306.717 296.115 306.853C293.878 308.52 292.175 310.894 291.314 313.548C292.799 312.404 295.328 313.199 295.891 314.987C296.756 314.348 298.187 314.782 298.554 315.793C298.92 316.805 298.097 318.054 297.022 318.116C316.089 318.284 335.156 318.452 354.223 318.619C342.344 320.87 330.125 319.142 318.037 318.919C310.182 318.774 302.316 319.271 294.542 320.403C295.229 319.051 295.724 317.602 296.007 316.112C281.028 320.317 265.145 315.339 249.587 315.436C245.383 315.462 240.351 316.442 238.804 320.351C238.123 316.091 237.442 311.831 236.762 307.571C236.142 311.006 235.524 314.441 234.904 317.876C234.753 318.718 234.557 319.635 233.888 320.167C233.026 320.852 231.69 320.576 230.868 319.845C230.046 319.114 229.617 318.049 229.231 317.019C226.954 310.939 225.205 304.661 224.01 298.279C223.933 306.124 227.149 313.58 230.306 320.762C228.931 320.381 227.556 319.999 226.181 319.618C227.294 321.014 228.407 322.409 229.52 323.805C226.076 322.514 222.738 320.938 219.553 319.1C220.866 320.933 222.181 322.766 223.494 324.6C220.273 323.079 217.448 320.729 215.367 317.838C218.279 317.049 221.538 317.658 223.967 319.447C222.84 317.842 222.327 315.817 222.554 313.868C224.108 315.232 225.663 316.596 227.218 317.96C224.593 311.95 222.77 305.591 221.814 299.103C221.625 297.813 221.768 296.063 223.043 295.791C224.355 295.512 225.183 297.136 225.523 298.434C226.985 304.009 228.447 309.584 229.909 315.158C230.488 313.196 231.067 311.233 231.646 309.27C231.929 311.626 232.708 313.923 233.917 315.965C234.324 311.801 235.591 307.722 237.617 304.061C238.059 308.137 238.501 312.214 238.943 316.29C252.237 312.17 266.488 316.519 280.394 317.107C283.201 317.225 286.174 317.146 288.577 315.69C290.981 314.233 292.489 310.951 291.107 308.504C289.676 310.828 287.828 312.895 285.68 314.578C287.657 310.307 289.674 305.859 289.641 301.153C287.665 305.06 285.689 308.967 283.714 312.874C282.695 311.165 281.676 309.455 280.657 307.745C279.29 310.186 279.709 313.496 281.64 315.52C279.956 314.392 278.271 313.264 276.587 312.136C276.332 312.819 276.076 313.503 275.821 314.187C274.178 313.665 272.844 312.261 272.405 310.594C274.123 309.897 276.203 310.184 277.669 311.32C278.747 308.72 279.825 306.12 280.903 303.521C281.655 305.697 282.407 307.873 283.159 310.049C288.906 302.185 292.335 292.648 292.911 282.925C292.952 282.24 292.991 281.515 293.375 280.946ZM293.475 315.538C293.257 314.843 292.077 314.788 291.796 315.46L291.629 315.397C291.42 315.644 291.418 316.043 291.626 316.291C292.29 316.192 292.93 315.931 293.475 315.538ZM137.53 155.641C139.241 158.754 139.893 162.437 139.354 165.947C168.806 164.68 198.303 164.424 227.773 165.182C228.117 166.537 226.155 167.167 224.757 167.146C197.254 166.735 169.738 167.204 142.266 168.55C141.396 168.593 140.483 168.649 139.745 169.112C138.969 169.6 138.518 170.455 138.101 171.271C130.304 186.527 122.481 202.005 118.712 218.718C116.774 227.313 116.032 236.72 120.004 244.584C121.511 247.568 123.642 250.203 126.021 252.55C138.797 265.151 157.927 269.015 175.868 268.713C187.319 268.521 198.745 266.874 209.784 263.826C221.488 260.595 233.16 255.503 241.148 246.36C245.84 240.99 249.028 234.488 251.82 227.928C257.152 215.401 261.241 202.346 264.009 189.017C265.742 189.382 265.766 191.832 265.366 193.558C260.418 214.905 254.666 237.66 238.368 252.308C223.648 265.537 202.905 269.64 183.145 270.746C171.73 271.386 160.135 271.185 149.079 268.276C138.023 265.366 127.467 259.545 120.448 250.521C122.495 258.326 129.429 263.897 136.648 267.502C155.604 276.967 177.988 276.467 198.918 273.177C212.86 270.985 227.17 267.388 238.021 258.362C247.295 250.648 253.206 239.63 257.655 228.416C262.58 216.004 265.996 202.993 267.805 189.763C268.931 189.051 269.766 191.042 269.623 192.366C267.184 215.041 258.496 237.013 244.769 255.224C245.545 262.546 246.322 269.868 247.099 277.19C247.747 283.304 248.43 289.549 251.028 295.121C249.611 282.502 248.193 269.882 246.775 257.263C246.6 255.705 246.652 253.721 248.086 253.085C249.299 267.335 251.108 281.534 253.506 295.633C253.791 297.307 251.276 298.263 249.864 297.32C248.452 296.378 248 294.542 247.679 292.875C245.339 280.726 244.053 268.374 243.839 256.003C240.86 256.59 238.771 259.479 238.168 262.454C237.566 265.43 238.146 268.503 238.727 271.483C240.595 281.075 242.463 290.668 244.331 300.261C245.205 304.748 246.079 309.384 245.115 313.852C241.407 296.923 238.427 279.835 236.184 262.652C207.734 280.048 171.075 283.284 140.019 271.139C133.236 268.486 126.499 264.971 122.019 259.229C118.489 254.705 116.607 249.089 115.62 243.437C112.116 223.364 119.296 202.89 129.042 184.995C132.74 178.206 136.952 171.133 136.653 163.407C136.551 160.748 135.977 157.802 137.53 155.641ZM277.649 192.903C278.243 192.195 279.492 192.519 280.011 193.283C280.529 194.048 280.53 195.038 280.513 195.962C280.004 223.462 280.339 251.015 282.972 278.394C283.601 284.935 284.354 291.599 282.976 298.024C282.49 298.376 282.004 297.574 281.934 296.979C278.632 269.225 278.134 241.223 277.64 213.278C277.529 206.998 277.418 200.718 277.307 194.438C277.297 193.901 277.305 193.314 277.649 192.903ZM262.908 140.449C254.474 144.426 245.811 148.57 239.527 155.459C238.691 156.377 237.886 157.365 237.473 158.535C236.157 162.26 239.142 166.04 242.067 168.695C255.545 180.926 272.852 188.875 290.912 191.13C291.239 189.047 292.887 187.361 294.779 186.431C296.672 185.501 298.802 185.201 300.892 184.914C308.287 183.901 316.215 182.992 322.876 186.359C324.531 187.195 324.672 189.702 323.576 191.198C322.48 192.695 320.605 193.383 318.808 193.84C310.863 195.858 302.503 194.876 294.367 193.881C292.369 193.637 291.65 196.536 292.18 198.478C293.253 202.41 296.105 205.677 299.462 207.989C302.819 210.302 306.679 211.765 310.529 213.104C319.915 216.368 329.509 219.033 339.233 221.08C343.264 221.929 347.435 222.719 350.87 224.991C350.673 225.916 349.392 225.989 348.459 225.835C334.337 223.511 320.447 219.777 307.063 214.707C302.742 213.07 298.386 211.242 294.909 208.197C291.432 205.153 288.923 200.662 289.342 196.06C289.436 195.025 289.383 193.576 288.353 193.445C271.165 191.261 254.667 183.911 241.551 172.591C237.44 169.043 233.333 164.082 234.565 158.794C235.065 156.653 236.402 154.805 237.852 153.152C244.178 145.937 253.35 141.288 262.908 140.449ZM320.562 187.967C314.482 185.955 307.873 186.798 301.527 187.662C298.608 188.06 295.254 188.746 293.882 191.354C296.707 191.126 299.561 191.255 302.354 191.736C308.134 192.731 314.134 192.424 319.783 190.845C320.319 190.695 320.873 190.522 321.279 190.142C321.686 189.761 321.894 189.111 321.608 188.633C321.391 188.27 320.963 188.1 320.562 187.967ZM177.879 130.368C177.959 131.319 176.858 131.875 175.952 132.174C165.697 135.564 155.96 140.517 147.182 146.809C139.369 152.408 131.856 159.274 122.404 161.023C119.629 161.536 117.84 164.136 116 166.276C109.816 173.466 100.449 176.972 91.3613 179.684C85.1645 181.533 78.2575 183.096 72.4316 180.289C71.6473 179.911 70.8547 178.794 71.5977 178.34C77.5842 181.028 84.5504 179.464 90.8301 177.559C100.892 174.507 111.363 170.183 117.177 161.422C113.622 161.158 110.67 157.435 111.399 153.945C112.129 150.456 116.543 148.241 119.701 149.895C122.859 151.549 123.45 156.65 120.651 158.858C129.361 157.553 136.736 151.986 143.804 146.733C154.051 139.117 165.165 131.535 177.879 130.368ZM388.453 114.526C390.762 113.943 393.211 113.45 395.498 114.112C399.211 115.186 401.431 118.942 402.848 122.538C404.264 126.134 405.369 130.068 408.2 132.698C408.847 133.299 409.603 133.862 409.892 134.696C410.18 135.53 409.655 136.697 408.775 136.629C405.06 135.217 403.039 131.267 401.602 127.562C400.164 123.856 398.787 119.811 395.558 117.495C393.3 126.487 389.865 135.182 385.368 143.289C384.839 144.243 384.234 145.247 383.241 145.7C382.471 146.052 381.586 146.014 380.74 145.966C370.118 145.368 359.518 144.382 348.968 143.01C347.845 142.864 346.93 144.088 346.953 145.22C346.977 146.352 347.635 147.36 348.269 148.298C350.777 152.01 353.286 155.723 355.795 159.435C357.009 161.23 358.295 163.093 360.198 164.129C362.743 165.514 365.861 165.145 368.689 164.518C383.609 161.208 396.463 152.002 408.496 142.581C409.252 141.989 410.252 141.367 411.1 141.818C411.839 142.211 411.988 143.27 411.64 144.031C411.291 144.793 410.591 145.324 409.918 145.822C396.987 155.402 383.398 165.269 367.521 167.894C364.448 168.402 361.093 168.576 358.424 166.972C356.847 166.024 355.673 164.546 354.557 163.084C352.005 159.741 349.571 156.308 347.26 152.794C346.046 150.948 344.841 149.02 344.429 146.849C343.336 141.099 347.971 135.934 352.552 132.291C363.081 123.917 375.409 117.817 388.453 114.526ZM148.09 37.6271C166.484 25.0904 188.911 17.4574 211.033 19.9357C218.499 20.7722 225.791 22.7261 233.021 24.7648C255.641 31.1426 278.259 38.534 298.263 50.8703C299.999 51.941 301.943 53.5266 301.619 55.5402C276.669 40.9642 248.618 32.7155 220.885 24.6017C239.435 32.0728 259.506 40.8902 268.574 58.7141C272.411 66.2563 273.869 74.7589 275.011 83.1437C278.407 108.073 279.445 133.323 278.106 158.447C288.885 153.209 299.664 147.97 310.442 142.732C313.226 141.379 316.147 139.906 317.828 137.307C319.401 134.874 319.633 131.838 319.788 128.945C320.696 112.001 320.522 94.9997 319.268 78.0783C322.887 93.7207 324.492 109.828 324.03 125.877C323.905 130.223 323.525 134.857 320.872 138.301C318.945 140.803 316.058 142.347 313.262 143.816C303.274 149.062 293.287 154.309 283.3 159.556C271.725 165.636 257.786 167.061 245.221 163.448C254.209 162.981 263.198 162.513 272.187 162.045C272.92 162.007 273.706 161.949 274.281 161.492C275.123 160.824 275.189 159.593 275.184 158.519C275.049 131.957 274.907 105.29 271.035 79.0119C269.815 70.7323 268.125 62.2516 263.476 55.2932C258.355 47.6299 250.192 42.6172 242.143 38.1281C227.704 30.0759 212.037 22.7436 195.509 23.0998C181.864 23.3939 168.872 28.934 156.92 35.5246C147.431 40.7572 137.76 47.4067 134.011 57.5734C131.94 63.1896 131.908 69.3256 132.008 75.3107C132.364 96.6551 134.07 117.977 137.112 139.107C137.444 141.407 137.218 144.572 134.931 144.985C132.004 122.327 129.075 99.6297 128.288 76.798C128.06 70.178 128.043 63.3663 130.408 57.1789C133.595 48.8398 140.713 42.655 148.09 37.6271ZM253.119 123.14C253.91 122.906 254.803 122.681 255.526 123.078C256.249 123.476 256.379 124.79 255.584 125.011C218.56 135.286 181.957 147.075 145.896 160.341C145.186 160.602 144.434 160.869 143.689 160.732C142.945 160.595 142.249 159.888 142.413 159.15C142.568 158.452 143.338 158.109 144.012 157.87C179.994 145.129 216.515 133.966 253.119 123.14ZM117.1 151.109C116.593 151.109 116.095 151.271 115.65 151.514C114.083 152.371 113.2 154.386 113.771 156.078C114.396 157.927 116.416 158.95 118.345 159.245C119.169 157.789 120.019 156.244 120.008 154.57C119.997 152.897 118.773 151.107 117.1 151.109ZM392.315 116.783C390.163 116.547 388.032 117.275 386.001 118.025C379.585 120.394 373.296 123.106 367.17 126.148C360.698 129.361 354.221 133.1 349.861 138.862C358.621 139.839 367.381 140.817 376.141 141.794C377.791 141.978 379.573 142.136 381.006 141.297C382.132 140.638 382.847 139.469 383.491 138.334C387.332 131.565 390.306 124.303 392.315 116.783ZM264.948 73.9133C265.839 73.4893 266.929 73.1934 267.778 73.6955C268.627 74.1977 268.658 75.7948 267.689 75.9797C264.695 76.5498 262.346 79.0402 261.161 81.8488C259.976 84.6574 259.771 87.7703 259.664 90.8166C259.341 100.028 259.778 109.267 260.969 118.406C261.151 119.803 261.366 121.243 262.101 122.445C262.835 123.648 264.226 124.562 265.611 124.306C267.984 123.868 270.532 124.495 272.431 125.983C269.583 126.164 266.735 126.344 263.887 126.525C262.199 126.632 260.185 126.587 259.246 125.181C258.785 124.49 258.709 123.621 258.646 122.793C258.035 114.675 257.424 106.557 256.812 98.4387C256.467 93.8569 256.128 89.1927 257.154 84.7141C258.181 80.2354 260.799 75.888 264.948 73.9133ZM291.749 0.00115967C294.022 0.0480938 296.127 1.13302 298.139 2.19257C307.785 7.27415 317.605 12.4844 325.2 20.3068C325.446 26.838 323.85 33.2805 322.334 39.6379C316.183 65.4236 311.147 91.4754 307.243 117.695C306.869 120.209 306.159 123.173 303.775 124.053C302.066 124.684 300.078 123.878 298.863 122.519C297.649 121.16 297.067 119.355 296.662 117.578C295.663 113.194 295.543 108.611 296.311 104.18C297.202 99.0375 299.261 94.1611 300.273 89.0412C300.752 86.6192 300.993 84.1571 301.228 81.6994C302.472 68.6304 303.528 55.5431 304.395 42.4435C304.517 40.5925 304.629 38.6831 304.022 36.9299C302.944 33.8116 299.802 31.8404 296.629 30.9367C294.809 30.4184 292.892 30.1581 291.206 29.299C289.52 28.4399 288.057 26.7645 288.181 24.8762C288.578 18.7945 288.12 12.6575 286.823 6.70233C286.595 5.65562 286.34 4.57478 286.552 3.5246C287 1.2958 289.476 -0.045631 291.749 0.00115967ZM294.791 3.30585C294.21 10.3122 293.97 17.3475 294.074 24.3771C298.56 25.3237 302.944 26.7525 307.126 28.632C307.968 29.0104 308.853 29.4539 309.308 30.257C309.679 30.913 309.701 31.7034 309.712 32.4572C309.843 41.3109 309.871 50.1885 308.934 58.9933C308.194 65.9346 306.859 72.7962 305.712 79.6818C304.348 87.8739 303.25 96.1108 302.42 104.374C301.818 110.37 301.377 116.566 303.242 122.296C304.199 122.121 304.568 120.97 304.749 120.014C310.494 89.7317 316.239 59.4493 321.984 29.1672C322.402 26.9661 322.819 24.6898 322.327 22.5041C321.466 18.6778 318.069 16.0174 314.795 13.8586C308.491 9.70251 301.781 6.16226 294.791 3.30585ZM301.615 92.759C299.102 100.24 298.153 108.243 298.847 116.105C299.027 118.15 299.363 120.294 300.638 121.903C300.088 117.591 299.944 113.227 300.208 108.888C300.536 103.5 301.49 98.1557 301.615 92.759ZM302.813 113.101C302.839 112.615 303.489 112.366 303.932 112.568C304.374 112.769 304.622 113.244 304.776 113.705C305.34 115.388 305.05 117.334 304.021 118.779C303.212 117.879 304.207 116.445 303.954 115.262C303.783 114.461 303.055 113.884 302.813 113.101ZM302.356 87.216C301.946 87.4184 301.771 87.9919 301.999 88.3889L302.021 88.3391C302.425 88.1577 302.595 87.5895 302.356 87.216ZM294.293 26.6037C293.319 26.4133 291.885 26.6197 291.928 27.6115C295.962 29.2785 299.996 30.9455 304.03 32.6125C304.74 32.9058 305.496 33.2379 305.897 33.8928C306.291 34.5352 306.252 35.3424 306.201 36.0939L302.938 84.0412C306.093 67.8399 307.519 51.3014 307.183 34.799C307.157 33.5527 307.09 32.2131 306.328 31.2267C305.769 30.5041 304.916 30.0806 304.082 29.7072C300.951 28.3049 297.66 27.2614 294.293 26.6037ZM291.677 1.70331C290.679 1.0419 289.237 1.72418 288.682 2.78436C288.126 3.84452 288.21 5.11357 288.336 6.30389C289.033 12.8958 290.565 19.5006 289.784 26.0832C290.699 26.3973 291.721 25.7525 292.165 24.8928C292.609 24.033 292.62 23.0225 292.622 22.0549C292.632 16.2388 292.643 10.4227 292.653 4.60663C292.655 3.54023 292.566 2.29258 291.677 1.70331Z" fill="#00160A"/>
<path fill-rule="evenodd" clip-rule="evenodd" d="M385.943 288.684C385.09 289.058 384.168 289.407 383.25 289.249C382.333 289.091 381.475 288.23 381.659 287.318C383.344 278.976 381.229 269.942 376.015 263.215C374.188 260.858 372.013 258.783 370.233 256.39C369.111 254.882 368.114 252.986 368.682 251.195C369.492 248.646 372.752 248.026 375.42 247.844C381.623 247.421 387.826 246.999 394.028 246.576C396.886 246.381 400.178 246.352 402.086 248.489C407.397 254.438 417.748 254.837 423.501 249.315C424.392 248.461 425.513 250.162 425.477 251.395C425.366 255.274 423.768 259.091 421.082 261.892C420.449 262.552 419.638 263.2 418.728 263.105C417.817 263.01 417.146 261.703 417.872 261.145C419.429 259.949 421.016 258.722 422.108 257.09C423.2 255.458 423.729 253.318 422.984 251.501C418.978 256.569 414.933 261.608 410.85 266.615C403.771 275.298 396.2 284.179 385.943 288.684M397.13 263.135C396.111 263.417 395.024 263.2 394.007 262.913C386.686 260.844 379.942 255.124 372.453 256.463C381.185 263.495 385.821 275.287 384.217 286.383C389.97 285.151 394.514 280.856 398.589 276.612C404.62 270.33 410.347 263.755 415.742 256.919C411.864 256.888 408.001 255.769 404.705 253.724C400.635 254.731 401.172 262.017 397.13 263.135M402.447 251.585C400.022 248.726 395.664 248.814 391.929 249.142C387.058 249.57 382.186 249.998 377.315 250.426C375.337 250.6 373.066 250.947 372.035 252.643C380.466 254.408 388.686 257.181 396.464 260.882C397.464 257.74 399.469 254.926 402.112 252.955C402.41 252.733 402.75 252.449 402.71 252.08C402.69 251.891 402.57 251.73 402.447 251.585V251.585Z" fill="#00160A"/>
<path fill-rule="evenodd" clip-rule="evenodd" d="M41.3037 183.408C33.9667 180.474 25.2232 181.344 18.6085 185.666C17.9681 186.085 17.0474 185.618 16.7304 184.922C16.4134 184.226 16.5319 183.416 16.6941 182.668C18.8067 172.929 27.2228 165.476 36.5822 162.051C45.9416 158.626 56.1792 158.617 66.1283 159.202C67.1155 159.26 68.1473 159.338 68.9894 159.856C69.8315 160.375 70.3981 161.483 69.9783 162.379C66.0646 170.728 63.1164 179.529 61.2113 188.551C60.9024 190.014 59.3892 190.985 57.899 191.107C56.4087 191.229 54.9485 190.678 53.5961 190.04C49.3813 188.053 45.6304 185.138 41.3037 183.408M42.1424 173.553C41.4885 174.084 40.4665 173.803 39.8512 173.228C39.2359 172.652 38.8853 171.856 38.4017 171.166C35.8075 167.465 29.8544 167.772 26.3257 170.596C22.7969 173.419 21.0894 177.881 19.5345 182.124C29.8869 177.627 42.6376 179.241 51.5435 186.175C52.7594 187.122 53.9659 188.188 55.4632 188.553C56.9605 188.917 58.8468 188.262 59.226 186.769C61.2521 178.789 63.7489 170.929 66.6989 163.244C61.0385 170.279 49.151 167.858 42.1424 173.553M39.8894 169.301C40.4708 170.031 41.5263 170.225 42.4451 170.06C43.364 169.895 44.1987 169.438 45.0549 169.065C48.0024 167.784 51.2671 167.498 54.4272 166.912C57.5873 166.327 60.8468 165.335 63.0714 163.015C58.0521 163 53.0328 162.985 48.0135 162.97C42.9694 162.955 37.5337 163.062 33.4814 166.066C35.9483 166.156 38.3521 167.369 39.8894 169.301Z" fill="#00160A"/>
<path fill-rule="evenodd" clip-rule="evenodd" d="M277.024 182.735C277.012 178.32 277.001 173.905 276.989 169.49C276.985 168.222 276.982 166.954 276.979 165.686C276.976 164.812 277.123 163.718 277.954 163.446C278.582 163.241 279.274 163.692 279.568 164.285C279.862 164.877 279.858 165.567 279.848 166.229C279.757 172.39 279.665 178.551 279.573 184.712C279.56 185.598 279.412 186.688 278.582 186.999C277.198 186.215 277.029 184.325 277.024 182.735H277.024Z" fill="#00160A"/>
<path fill-rule="evenodd" clip-rule="evenodd" d="M268.209 178.649C267.57 178.929 267.241 177.876 267.34 177.185C267.693 174.713 268.047 172.236 268.649 169.812C269.023 168.303 269.563 166.715 270.809 165.785C272.055 164.856 274.196 165.019 274.805 166.449C275.101 167.142 274.978 167.933 274.842 168.674C274.003 173.26 272.873 177.794 271.461 182.237C271.401 182.426 271.335 182.622 271.193 182.759C270.845 183.092 270.218 182.868 269.977 182.452C269.737 182.035 269.768 181.521 269.806 181.041C270.38 180.999 270.648 180.324 270.786 179.765C271.348 177.484 271.911 175.202 272.474 172.92C272.912 171.145 273.311 169.123 272.292 167.605C271.245 168.25 270.852 169.554 270.54 170.743C269.914 173.136 269.287 175.529 268.66 177.921C268.585 178.208 268.48 178.53 268.209 178.649L268.209 178.649Z" fill="#00160A"/>
</svg>
