<svg width="180" height="180" viewBox="0 0 180 180" fill="none" xmlns="http://www.w3.org/2000/svg">
<mask id="mask0_1446_38533" style="mask-type:luminance" maskUnits="userSpaceOnUse" x="82" y="16" width="65" height="131">
<path d="M146.88 16.32H82.0801V146.88H146.88V16.32Z" fill="white"/>
</mask>
<g mask="url(#mask0_1446_38533)">
<path d="M145.849 100.612C146.093 100.693 146.175 100.852 146.097 101.092L140.022 113.962C139.941 114.127 139.821 114.21 139.662 114.21H94.2565C94.2565 114.21 94.2153 114.21 94.1365 114.21H87.949C87.7034 114.21 87.5815 114.086 87.5815 113.842C87.5815 113.599 87.7034 113.475 87.949 113.475C89.5634 113.475 90.9359 112.911 92.0665 111.78C93.2009 110.646 93.769 109.271 93.769 107.655V35.5424C93.769 33.9224 93.2009 32.5481 92.0665 31.4174C90.9359 30.2831 89.5634 29.7149 87.949 29.7149C87.7034 29.7149 87.5815 29.5949 87.5815 29.3549C87.5815 29.1112 87.7034 28.9874 87.949 28.9874H104.577C104.82 28.9874 104.944 29.1112 104.944 29.3549C104.944 29.5949 104.82 29.7149 104.577 29.7149C102.957 29.7149 101.578 30.2831 100.444 31.4174C99.3134 32.5481 98.749 33.9224 98.749 35.5424V107.655C98.749 109.271 99.3134 110.646 100.444 111.78C101.578 112.911 102.957 113.475 104.577 113.475H126.792C129.135 113.475 131.524 112.89 133.954 111.72C136.384 110.546 138.608 109.009 140.629 107.107C142.654 105.202 144.233 103.078 145.369 100.732C145.448 100.489 145.609 100.447 145.849 100.612Z" fill="#380F05"/>
</g>
<mask id="mask1_1446_38533" style="mask-type:luminance" maskUnits="userSpaceOnUse" x="39" y="49" width="80" height="131">
<path d="M118.56 49.92H39.3599V180H118.56V49.92Z" fill="white"/>
</mask>
<g mask="url(#mask1_1446_38533)">
<path d="M114.388 147.113C114.547 147.113 114.667 147.156 114.748 147.24C114.826 147.321 114.868 147.402 114.868 147.48C114.868 147.724 114.706 147.848 114.388 147.848H108.193C108.193 147.848 107.848 147.848 107.158 147.848C106.471 147.848 105.785 147.848 105.095 147.848C104.409 147.848 104.068 147.848 104.068 147.848C104.068 147.848 103.539 147.848 102.485 147.848C101.435 147.848 100.402 147.848 99.3877 147.848C98.3771 147.848 97.8727 147.848 97.8727 147.848C97.5521 147.848 97.3927 147.724 97.3927 147.48C97.3927 147.237 97.5521 147.113 97.8727 147.113C99.4927 147.113 100.867 146.549 101.998 145.418C103.132 144.284 103.7 142.909 103.7 141.293V103.898C103.7 100.259 102.444 97.1236 99.9352 94.4929C97.4302 91.8642 94.3552 90.4261 90.7102 90.1804C90.3896 90.1804 90.1477 90.1804 89.9827 90.1804C86.2627 90.1804 82.8652 91.2342 79.7902 93.3379C77.5196 94.9579 75.6971 96.9811 74.3227 99.4054C74.3227 99.4917 74.2814 99.6529 74.2027 99.8929C71.7727 104.588 68.0902 106.935 63.1552 106.935C62.9939 106.935 62.8327 106.935 62.6677 106.935C59.9171 106.776 57.4496 105.803 55.2652 104.018C53.3246 102.323 52.0289 100.182 51.3802 97.5904C51.2996 97.1011 51.2189 96.5742 51.1402 96.0079C51.0539 95.6029 51.0127 95.1979 51.0127 94.7929V69.1804C51.0127 67.5604 50.4446 66.1861 49.3102 65.0554C48.1796 63.9211 46.8071 63.3529 45.1927 63.3529C44.9471 63.3529 44.8252 63.2329 44.8252 62.9929C44.8252 62.7492 44.9471 62.6254 45.1927 62.6254H51.5002C51.5002 62.6254 51.8414 62.6254 52.5277 62.6254C53.2177 62.6254 53.9077 62.6254 54.5977 62.6254C55.2877 62.6254 55.6327 62.6254 55.6327 62.6254C55.6327 62.6254 56.1371 62.6254 57.1477 62.6254C58.1564 62.6254 59.1877 62.6254 60.2377 62.6254C61.2914 62.6254 61.8202 62.6254 61.8202 62.6254C62.0639 62.6254 62.1877 62.7492 62.1877 62.9929C62.1877 63.2329 62.0639 63.3529 61.8202 63.3529C60.2002 63.3529 58.8221 63.9211 57.6877 65.0554C56.5571 66.1861 55.9927 67.5604 55.9927 69.1804V98.7979C55.9927 98.7979 55.9927 98.8411 55.9927 98.9254C55.9927 100.785 56.6396 102.404 57.9352 103.778C59.2289 105.154 60.8489 105.923 62.7952 106.088C62.8739 106.088 62.9939 106.088 63.1552 106.088C67.7696 106.088 71.2102 103.86 73.4752 99.4054C73.4752 99.3267 73.5539 99.2067 73.7152 99.0454C75.0896 96.4561 76.9927 94.3504 79.4227 92.7304C82.5764 90.4654 86.0977 89.3329 89.9827 89.3329C90.1477 89.3329 90.3896 89.3742 90.7102 89.4529C96.2939 89.6142 100.867 91.8811 104.428 96.2554C106.126 98.2767 107.302 100.581 107.953 103.17C108.358 104.79 108.56 106.41 108.56 108.03V141.293C108.639 142.909 109.245 144.284 110.375 145.418C111.51 146.549 112.846 147.113 114.388 147.113ZM61.8202 147.113C61.8989 147.113 61.9796 147.156 62.0602 147.24C62.1446 147.321 62.1877 147.402 62.1877 147.48C62.1877 147.724 62.0639 147.848 61.8202 147.848H55.6327C55.6327 147.848 55.2877 147.848 54.5977 147.848C53.9077 147.848 53.2177 147.848 52.5277 147.848C51.8414 147.848 51.5002 147.848 51.5002 147.848C51.5002 147.848 50.9714 147.848 49.9177 147.848C48.8677 147.848 47.8177 147.848 46.7677 147.848C45.7177 147.848 45.1927 147.848 45.1927 147.848C44.9471 147.848 44.8252 147.724 44.8252 147.48C44.8252 147.237 44.9471 147.113 45.1927 147.113C46.8071 147.113 48.1796 146.549 49.3102 145.418C50.4446 144.284 51.0127 142.909 51.0127 141.293V106.328C51.0127 106.169 51.0952 106.047 51.2602 105.96C51.4196 105.882 51.5827 105.923 51.7477 106.088C52.9571 107.299 54.2921 108.269 55.7527 108.998C55.9121 109.079 55.9927 109.2 55.9927 109.365V141.293C55.9927 142.909 56.5571 144.284 57.6877 145.418C58.8221 146.549 60.2002 147.113 61.8202 147.113ZM97.8727 63.3529C97.7114 63.3529 97.5914 63.3136 97.5127 63.2329C97.4321 63.1542 97.3927 63.0736 97.3927 62.9929C97.3927 62.7492 97.5521 62.6254 97.8727 62.6254H104.068C104.068 62.6254 104.409 62.6254 105.095 62.6254C105.785 62.6254 106.471 62.6254 107.158 62.6254C107.848 62.6254 108.193 62.6254 108.193 62.6254C108.193 62.6254 108.718 62.6254 109.768 62.6254C110.821 62.6254 111.855 62.6254 112.865 62.6254C113.88 62.6254 114.388 62.6254 114.388 62.6254C114.706 62.6254 114.868 62.7492 114.868 62.9929C114.868 63.2329 114.706 63.3529 114.388 63.3529C112.846 63.3529 111.51 63.9211 110.375 65.0554C109.245 66.1861 108.639 67.5604 108.56 69.1804V93.0979C108.56 93.2592 108.478 93.3792 108.313 93.4579C108.313 93.4579 108.271 93.4579 108.193 93.4579C108.031 93.4579 107.911 93.4186 107.833 93.3379C106.696 91.8829 105.36 90.5892 103.82 89.4529C103.74 89.3742 103.7 89.2542 103.7 89.0929V69.1804C103.7 67.5604 103.132 66.1861 101.998 65.0554C100.867 63.9211 99.4927 63.3529 97.8727 63.3529Z" fill="#380F05"/>
</g>
<mask id="mask2_1446_38533" style="mask-type:luminance" maskUnits="userSpaceOnUse" x="11" y="11" width="76" height="71">
<path d="M86.88 11.52H11.52V81.12H86.88V11.52Z" fill="white"/>
</mask>
<g mask="url(#mask2_1446_38533)">
<path d="M38.0129 76.6999L39.3254 73.0774L39.0104 72.8299L36.8279 74.2024L36.8054 74.1799L37.6004 71.6899L37.3379 71.4724L34.0229 73.4674L34.3154 73.7074L36.7904 72.2149L36.8129 72.2299L35.9129 74.9974L36.0179 75.0874L38.4854 73.5499L38.5079 73.5649L37.5179 76.3024L38.0129 76.6999Z" fill="#380F05"/>
<path d="M31.1905 66.5354L31.0555 66.6254C30.7855 66.8054 30.5811 67.0004 30.4405 67.2104C30.2961 67.4166 30.2042 67.6285 30.163 67.8479C30.118 68.0691 30.1236 68.2866 30.178 68.5004C30.2286 68.7104 30.3186 68.9129 30.448 69.1079C30.583 69.3123 30.7461 69.4773 30.9355 69.6029C31.1211 69.7266 31.3255 69.8091 31.5505 69.8504C31.7755 69.8898 32.008 69.8804 32.248 69.8204C32.4842 69.7641 32.7242 69.6554 32.968 69.4904C33.1686 69.3554 33.343 69.1923 33.493 69.0029C33.6392 68.8116 33.7442 68.6054 33.808 68.3804C33.8736 68.1516 33.8867 67.9079 33.8455 67.6529C33.8061 67.3941 33.6992 67.1316 33.523 66.8654C33.3486 66.6066 33.1405 66.3985 32.9005 66.2429C32.6605 66.0891 32.4036 65.9916 32.128 65.9504L32.068 66.2654C32.203 66.301 32.3267 66.3366 32.4355 66.3704C32.5461 66.406 32.6455 66.4491 32.7355 66.4979C32.8217 66.5485 32.9042 66.6066 32.983 66.6704C33.0636 66.736 33.1386 66.8204 33.208 66.9254C33.283 67.036 33.3467 67.1691 33.3955 67.3229C33.4461 67.4729 33.463 67.6304 33.448 67.7954C33.433 67.9604 33.373 68.1329 33.268 68.3129C33.1592 68.4891 32.9811 68.6579 32.7355 68.8229L31.1905 66.5354ZM32.488 68.9879C32.3286 69.0966 32.1617 69.1866 31.9855 69.2579C31.8111 69.3273 31.6442 69.3648 31.483 69.3704C31.318 69.3741 31.1642 69.3441 31.018 69.2804C30.8736 69.2204 30.7536 69.1173 30.658 68.9729C30.463 68.6879 30.4236 68.3916 30.538 68.0804C30.6542 67.771 30.9055 67.4841 31.2955 67.2179L32.488 68.9879Z" fill="#380F05"/>
<path d="M25.2881 61.1405L25.4756 61.7255L27.4331 61.088L27.4406 61.118C27.3356 61.2042 27.2568 61.298 27.2006 61.403C27.1406 61.508 27.1031 61.6167 27.0881 61.7255C27.0693 61.8361 27.0637 61.9486 27.0731 62.063C27.0843 62.1792 27.1068 62.2917 27.1406 62.4005C27.2156 62.6367 27.3281 62.8355 27.4781 63.0005C27.6281 63.1655 27.8062 63.293 28.0106 63.383C28.2112 63.4767 28.4362 63.5255 28.6856 63.5255C28.9312 63.5292 29.1918 63.488 29.4656 63.398C29.7412 63.308 29.9793 63.1899 30.1781 63.0455C30.3731 62.8955 30.5287 62.723 30.6431 62.528C30.7537 62.333 30.8212 62.1267 30.8456 61.9055C30.8662 61.6861 30.8381 61.4592 30.7631 61.223C30.5887 60.683 30.2568 60.3961 29.7656 60.3605L29.7581 60.3305L30.3206 60.1505L30.1331 59.5655L25.2881 61.1405ZM28.9406 60.6005C29.0906 60.5517 29.2443 60.5311 29.3981 60.5405C29.5481 60.5461 29.6887 60.5742 29.8181 60.623C29.9437 60.6736 30.0543 60.7505 30.1481 60.8555C30.2437 60.9567 30.3131 61.0711 30.3581 61.2005C30.4087 61.3505 30.4293 61.4986 30.4181 61.643C30.4031 61.7892 30.3543 61.928 30.2681 62.063C30.1837 62.198 30.0581 62.3255 29.8931 62.4455C29.7281 62.5617 29.5162 62.6611 29.2556 62.7455C28.9968 62.8317 28.7662 62.8767 28.5656 62.8805C28.3612 62.8805 28.1831 62.8505 28.0331 62.7905C27.8831 62.7267 27.7612 62.6386 27.6656 62.528C27.5718 62.4192 27.5006 62.2917 27.4556 62.1455C27.4162 62.0217 27.4031 61.8905 27.4181 61.7555C27.4293 61.6205 27.4743 61.493 27.5531 61.373C27.6281 61.253 27.7312 61.1442 27.8606 61.043C27.9918 60.938 28.1512 60.8555 28.3406 60.7955L28.9406 60.6005Z" fill="#380F05"/>
<path d="M24.332 53.0444L24.347 53.6594L26.402 53.5919V53.6219C26.2783 53.6781 26.1752 53.7475 26.0945 53.8319C26.0102 53.9125 25.9427 54.0044 25.892 54.1094C25.8433 54.2106 25.8077 54.3175 25.787 54.4319C25.7683 54.5481 25.757 54.6625 25.757 54.7769C25.7683 55.0225 25.8208 55.2456 25.9145 55.4444C26.0102 55.645 26.1433 55.8175 26.312 55.9619C26.4827 56.1081 26.6852 56.2169 26.9195 56.2919C27.1558 56.3631 27.4183 56.3931 27.707 56.3819C27.9977 56.3725 28.2602 56.3256 28.4945 56.2394C28.7252 56.1494 28.922 56.0275 29.087 55.8719C29.2483 55.7181 29.3702 55.5381 29.4545 55.3319C29.5408 55.1275 29.5764 54.9025 29.567 54.6569C29.552 54.0869 29.312 53.7175 28.847 53.5469V53.5169L29.4395 53.4944L29.4245 52.8794L24.332 53.0444ZM27.9845 53.5394C28.1458 53.5356 28.2977 53.5581 28.442 53.6069C28.5883 53.6575 28.7158 53.725 28.8245 53.8094C28.9295 53.8956 29.0158 54.0006 29.0795 54.1244C29.1452 54.2444 29.1808 54.3756 29.1845 54.5144C29.1902 54.67 29.1677 54.8181 29.117 54.9569C29.0627 55.0919 28.9783 55.2156 28.862 55.3244C28.742 55.4294 28.5883 55.5156 28.397 55.5794C28.202 55.645 27.9677 55.6825 27.692 55.6919C27.4183 55.7031 27.1858 55.6806 26.9945 55.6244C26.7995 55.57 26.6383 55.4931 26.507 55.3919C26.3777 55.2925 26.2858 55.1744 26.2295 55.0394C26.1695 54.9044 26.1377 54.7619 26.132 54.6119C26.1283 54.4769 26.1508 54.3494 26.1995 54.2294C26.2502 54.1056 26.3308 53.995 26.4395 53.8994C26.5445 53.8 26.6758 53.7194 26.8295 53.6594C26.9795 53.5994 27.1558 53.5675 27.3545 53.5619L27.9845 53.5394Z" fill="#380F05"/>
<path d="M26.3653 48.3196L29.9203 49.0771L30.0478 48.4771L26.4928 47.7196L26.3653 48.3196ZM25.2178 48.1771C25.319 48.1977 25.4165 48.1808 25.5103 48.1246C25.6059 48.0646 25.664 47.9821 25.6828 47.8771C25.7034 47.7721 25.6828 47.6727 25.6228 47.5771C25.5628 47.4833 25.484 47.4252 25.3828 47.4046C25.274 47.3802 25.1728 47.4008 25.0828 47.4646C24.989 47.5246 24.9309 47.6071 24.9103 47.7121C24.8915 47.8171 24.9103 47.9146 24.9703 48.0046C25.0265 48.0946 25.109 48.1527 25.2178 48.1771Z" fill="#380F05"/>
<path d="M32.4552 42.0647L30.3327 41.0447C30.254 41.0109 30.1415 40.9678 29.9952 40.9172C29.8509 40.8628 29.6934 40.8403 29.5227 40.8497C29.354 40.8609 29.1834 40.9209 29.0127 41.0297C28.8384 41.1403 28.6809 41.3409 28.5402 41.6297C28.4765 41.7497 28.4334 41.9034 28.4127 42.0872C28.394 42.2728 28.424 42.4809 28.5027 42.7097L28.5552 42.8522L28.5402 42.8822L28.1277 42.6872L27.8652 43.2422L31.1427 44.8097L31.4052 44.2547L29.3727 43.2797C29.204 43.2009 29.069 43.1072 28.9677 43.0022C28.8684 42.8972 28.799 42.7828 28.7577 42.6572C28.7127 42.5334 28.6977 42.4078 28.7127 42.2822C28.7277 42.1528 28.7634 42.0328 28.8177 41.9222C28.904 41.7384 29.0052 41.6128 29.1252 41.5472C29.2452 41.4834 29.3634 41.4497 29.4777 41.4497C29.594 41.4459 29.7027 41.4628 29.8077 41.5022C29.909 41.5378 29.9802 41.5659 30.0252 41.5847L32.1852 42.6197L32.4552 42.0647Z" fill="#380F05"/>
<path d="M36.3493 37.3721C36.5143 37.5183 36.6361 37.6627 36.7168 37.8071C36.7955 37.9477 36.8405 38.0846 36.8518 38.2196C36.8611 38.3546 36.8405 38.4877 36.7918 38.6171C36.7411 38.7427 36.6661 38.8571 36.5668 38.9621C36.4018 39.1571 36.2161 39.2696 36.0118 39.2996C35.8055 39.3296 35.5805 39.3221 35.3368 39.2771V39.8171C35.3855 39.8171 35.4605 39.8133 35.5618 39.8096C35.6668 39.8039 35.7811 39.7814 35.9068 39.7421C36.0305 39.7064 36.1655 39.6483 36.3118 39.5696C36.4561 39.4908 36.593 39.3746 36.7243 39.2246C36.968 38.9508 37.1255 38.6921 37.1968 38.4521C37.2718 38.2121 37.283 37.9871 37.2343 37.7771C37.1893 37.5633 37.0955 37.3646 36.9568 37.1846C36.8218 37.0008 36.6605 36.8246 36.4768 36.6596L33.8068 34.2896L33.3943 34.7546L33.8218 35.1371L33.8068 35.1596C33.6118 35.0658 33.4093 35.0527 33.1993 35.1221C32.9855 35.1877 32.7755 35.3358 32.5693 35.5646C32.4043 35.7502 32.2899 35.9508 32.2243 36.1646C32.1549 36.3746 32.1343 36.5902 32.1643 36.8096C32.1905 37.0252 32.2655 37.2408 32.3893 37.4546C32.5093 37.6646 32.678 37.8671 32.8918 38.0621C33.113 38.2533 33.338 38.3977 33.5668 38.4971C33.7918 38.5927 34.013 38.6433 34.2343 38.6471C34.4536 38.6471 34.6636 38.6021 34.8643 38.5121C35.063 38.4221 35.2468 38.2852 35.4118 38.0996C35.5918 37.8952 35.708 37.6833 35.7643 37.4621C35.8186 37.2371 35.7868 37.0177 35.6668 36.8021L35.6818 36.7796L36.3493 37.3721ZM34.9543 36.1421C35.108 36.2771 35.2261 36.4177 35.3068 36.5621C35.3855 36.7027 35.4343 36.8452 35.4493 36.9896C35.468 37.1302 35.4586 37.2652 35.4193 37.3946C35.3836 37.5202 35.3218 37.6308 35.2318 37.7246C35.1568 37.8108 35.0593 37.8933 34.9393 37.9721C34.8193 38.0471 34.6786 38.0902 34.5193 38.0996C34.358 38.1052 34.1818 38.0696 33.9868 37.9946C33.788 37.9158 33.5668 37.7677 33.3268 37.5521C33.0718 37.3271 32.8993 37.1152 32.8093 36.9146C32.7155 36.7102 32.6705 36.5246 32.6743 36.3596C32.6743 36.1946 32.7043 36.0558 32.7643 35.9396C32.8243 35.8252 32.8805 35.7408 32.9293 35.6846C33.0399 35.5646 33.1618 35.4821 33.2968 35.4371C33.4318 35.3921 33.5724 35.3771 33.7168 35.3921C33.863 35.4071 34.0074 35.4502 34.1518 35.5196C34.2961 35.5908 34.4311 35.6808 34.5568 35.7896L34.9543 36.1421Z" fill="#380F05"/>
<path d="M46.3216 30.4449C46.1116 30.7449 45.9053 30.9662 45.7066 31.1049C45.5116 31.2399 45.3184 31.3431 45.1291 31.4124C44.8478 31.5081 44.5891 31.5549 44.3491 31.5549C44.1091 31.5549 43.8934 31.5174 43.7041 31.4424C43.5128 31.3674 43.3534 31.2624 43.2241 31.1274C43.0984 30.9924 43.0066 30.8424 42.9466 30.6774C42.8866 30.5087 42.8641 30.3381 42.8791 30.1674C42.8941 29.9987 42.9372 29.8299 43.0066 29.6649C43.0816 29.4962 43.1791 29.3331 43.2991 29.1774C43.4191 29.0181 43.5541 28.8606 43.7041 28.7049C43.4828 28.5512 43.2934 28.4087 43.1341 28.2774C42.9747 28.1424 42.8603 27.9774 42.7891 27.7824C42.7497 27.6681 42.7272 27.5424 42.7216 27.4074C42.7178 27.2724 42.7422 27.1449 42.7966 27.0249C42.8472 26.9012 42.9278 26.7831 43.0366 26.6724C43.1453 26.5581 43.2878 26.4699 43.4641 26.4099C43.6084 26.3612 43.7509 26.3387 43.8916 26.3424C44.0303 26.3424 44.1616 26.3706 44.2816 26.4249C44.4053 26.4812 44.5159 26.5599 44.6116 26.6649C44.7053 26.7662 44.7803 26.8899 44.8366 27.0399C44.9059 27.2349 44.9059 27.4487 44.8366 27.6774C44.7709 27.9024 44.6059 28.1481 44.3416 28.4124L46.3441 29.7324C46.4191 29.5037 46.4509 29.2581 46.4416 28.9974C46.4303 28.7331 46.3684 28.4162 46.2541 28.0449L46.7791 27.8649C46.8484 28.1199 46.8803 28.3581 46.8766 28.5774C46.8766 28.7987 46.8578 28.9974 46.8241 29.1774C46.7941 29.3574 46.7566 29.5131 46.7116 29.6424C46.6666 29.7681 46.6309 29.8581 46.6066 29.9124L47.5066 30.4899L46.7791 30.7449L46.3216 30.4449ZM43.6066 26.7024C43.5053 26.7381 43.4266 26.7849 43.3666 26.8449C43.3103 26.9049 43.2691 26.9706 43.2391 27.0399C43.2091 27.1112 43.1959 27.1824 43.2016 27.2574C43.2109 27.3324 43.2278 27.4056 43.2541 27.4749C43.3084 27.6306 43.4116 27.7674 43.5616 27.8874C43.7153 28.0074 43.8953 28.1331 44.1016 28.2624C44.1559 28.2137 44.2084 28.1481 44.2591 28.0674C44.3078 27.9831 44.3509 27.8931 44.3866 27.7974C44.4203 27.6981 44.4409 27.5931 44.4466 27.4824C44.4503 27.3737 44.4334 27.2631 44.3941 27.1524C44.3734 27.0924 44.3378 27.0287 44.2891 26.9574C44.2441 26.8881 44.1878 26.8281 44.1241 26.7774C44.0641 26.7287 43.9891 26.6931 43.8991 26.6724C43.8128 26.6537 43.7153 26.6631 43.6066 26.7024ZM43.9591 28.8849C43.6891 29.1812 43.5184 29.4362 43.4491 29.6499C43.3834 29.8599 43.3891 30.0681 43.4641 30.2724C43.5278 30.4581 43.6234 30.6099 43.7491 30.7299C43.8784 30.8462 44.0228 30.9324 44.1841 30.9924C44.3434 31.0524 44.5084 31.0806 44.6791 31.0749C44.8534 31.0712 45.0184 31.0431 45.1741 30.9924C45.2078 30.9774 45.2603 30.9531 45.3316 30.9174C45.4066 30.8837 45.4853 30.8406 45.5716 30.7899C45.6616 30.7356 45.7478 30.6681 45.8341 30.5874C45.9241 30.5031 46.0028 30.4037 46.0741 30.2874L43.9591 28.8849Z" fill="#380F05"/>
<path d="M59.2152 28.8582L59.2377 28.7007C59.2921 28.3819 59.2921 28.0988 59.2377 27.8532C59.1871 27.6038 59.0971 27.3882 58.9677 27.2082C58.8364 27.0244 58.6771 26.8782 58.4877 26.7732C58.2964 26.6644 58.0846 26.5894 57.8502 26.5482C57.6102 26.5088 57.3796 26.5144 57.1602 26.5632C56.9389 26.6082 56.7364 26.6982 56.5527 26.8332C56.3727 26.9682 56.2189 27.1444 56.0952 27.3582C55.9752 27.5682 55.8889 27.8194 55.8402 28.1082C55.8046 28.3482 55.8046 28.5882 55.8402 28.8282C55.8739 29.0644 55.9527 29.2838 56.0727 29.4882C56.1927 29.6944 56.3596 29.8707 56.5752 30.0207C56.7889 30.1707 57.0552 30.27 57.3702 30.3207C57.6739 30.3694 57.9646 30.3619 58.2402 30.2982C58.5196 30.2325 58.7689 30.1144 58.9902 29.9457L58.8027 29.6757C58.6864 29.7507 58.5777 29.8163 58.4727 29.8707C58.3714 29.9307 58.2721 29.9757 58.1727 30.0057C58.0771 30.0394 57.9777 30.06 57.8727 30.0657C57.7714 30.075 57.6627 30.0694 57.5427 30.0507C57.4077 30.03 57.2671 29.985 57.1227 29.9157C56.9821 29.8519 56.8564 29.7563 56.7477 29.6307C56.6371 29.5069 56.5546 29.3438 56.5002 29.1432C56.4439 28.9388 56.4421 28.6913 56.4927 28.4007L59.2152 28.8582ZM56.5377 28.1157C56.5677 27.9207 56.6164 27.7388 56.6877 27.5682C56.7571 27.3938 56.8452 27.2438 56.9502 27.1182C57.0589 26.9944 57.1864 26.9007 57.3327 26.8407C57.4771 26.7769 57.6346 26.7582 57.8052 26.7882C58.1446 26.8444 58.3864 27.0207 58.5327 27.3207C58.6771 27.6207 58.7127 28.0032 58.6377 28.4682L56.5377 28.1157Z" fill="#380F05"/>
<path d="M63.2245 28.0366L63.082 31.9741L63.472 32.1616L66.337 29.4616L66.0295 29.3266L63.7345 31.4866L63.697 31.4716L63.8095 28.3066L63.2245 28.0366Z" fill="#380F05"/>
<path d="M70.9729 35.255L71.0704 35.135C71.2804 34.8838 71.4247 34.6363 71.5054 34.3925C71.5841 34.1525 71.6122 33.9257 71.5879 33.71C71.5672 33.4907 71.5016 33.2825 71.3929 33.0875C71.2822 32.8925 71.1379 32.72 70.9579 32.57C70.7722 32.4163 70.5716 32.3057 70.3579 32.24C70.1479 32.1707 69.9304 32.1482 69.7054 32.1725C69.4804 32.1932 69.2591 32.2663 69.0454 32.39C68.8354 32.51 68.6347 32.6825 68.4454 32.9075C68.2897 33.0932 68.1679 33.2975 68.0779 33.5225C67.9879 33.7475 67.9429 33.9782 67.9429 34.2125C67.9429 34.4525 67.9972 34.6888 68.1079 34.925C68.2166 35.1594 68.3947 35.3788 68.6404 35.585C68.8747 35.7838 69.1297 35.9244 69.4054 36.005C69.6791 36.0894 69.9547 36.1138 70.2304 36.08L70.2004 35.7575C70.0654 35.7613 69.9397 35.7613 69.8254 35.7575C69.7091 35.7575 69.6004 35.7444 69.4954 35.72C69.3941 35.6994 69.2966 35.6675 69.2029 35.6225C69.1129 35.5813 69.0191 35.5213 68.9254 35.4425C68.8204 35.3563 68.7229 35.2494 68.6329 35.12C68.5429 34.9888 68.4791 34.8425 68.4454 34.6775C68.4154 34.5125 68.4266 34.3288 68.4829 34.13C68.5372 33.9313 68.6591 33.7157 68.8504 33.485L70.9729 35.255ZM69.0379 33.26C69.1616 33.1157 69.2966 32.9863 69.4429 32.87C69.5929 32.75 69.7447 32.6657 69.9004 32.615C70.0541 32.5663 70.2097 32.5513 70.3654 32.57C70.5191 32.585 70.6654 32.6488 70.8004 32.7575C71.0647 32.9788 71.1847 33.2563 71.1604 33.59C71.1341 33.92 70.9729 34.265 70.6729 34.625L69.0379 33.26Z" fill="#380F05"/>
<path d="M73.8327 41.5019L75.7752 40.1744C75.8502 40.1238 75.944 40.0488 76.0602 39.9494C76.1746 39.8481 76.2702 39.7244 76.3452 39.5744C76.424 39.4244 76.4596 39.2444 76.4502 39.0344C76.4446 38.8281 76.3527 38.5956 76.1727 38.3369C76.0977 38.2169 75.9852 38.1025 75.8352 37.9919C75.6852 37.8831 75.4902 37.8081 75.2502 37.7669L75.1002 37.7294L75.0777 37.7069L75.4602 37.4444L75.1152 36.9344L72.1152 38.9894L72.4602 39.4994L74.3202 38.2319C74.474 38.1231 74.6221 38.0519 74.7627 38.0219C74.9071 37.9881 75.0421 37.9825 75.1677 38.0069C75.2971 38.0331 75.4115 38.0819 75.5127 38.1569C75.6177 38.2319 75.704 38.32 75.7752 38.4194C75.8896 38.5881 75.944 38.7419 75.9402 38.8769C75.9402 39.0119 75.9102 39.1319 75.8502 39.2369C75.794 39.3419 75.7246 39.4263 75.6402 39.4919C75.5596 39.5613 75.4977 39.6119 75.4527 39.6419L73.4802 40.9919L73.8327 41.5019Z" fill="#380F05"/>
<path d="M78.4219 43.2421L78.6919 43.1371L78.9094 43.7296L79.9594 43.3471L80.1769 43.9321L79.1269 44.3146L79.4269 45.1396L79.1569 45.2446L78.8569 44.4196L76.5844 45.2521C76.5338 45.2709 76.4719 45.2971 76.3969 45.3271C76.3257 45.3609 76.2657 45.4021 76.2169 45.4471C76.1663 45.4921 76.1288 45.5446 76.1044 45.6046C76.0838 45.6684 76.0894 45.7434 76.1194 45.8296C76.1588 45.9384 76.2319 46.0134 76.3369 46.0546C76.4457 46.094 76.5563 46.1221 76.6669 46.1371L76.4644 46.5721C76.1532 46.4315 75.9488 46.2215 75.8494 45.9421C75.8044 45.8221 75.7782 45.6965 75.7744 45.5671C75.7744 45.4415 75.7988 45.3196 75.8494 45.1996C75.9038 45.0834 75.9863 44.9709 76.0969 44.8621C76.2113 44.7571 76.3557 44.6709 76.5319 44.6071L78.6394 43.8346L78.4219 43.2421Z" fill="#380F05"/>
<path d="M79.8924 51.6783C80.0274 51.6633 80.1437 51.6145 80.2449 51.5358C80.3499 51.4552 80.4343 51.3502 80.4999 51.2208C80.5637 51.0952 80.6087 50.9508 80.6349 50.7858C80.6649 50.6245 80.6668 50.4558 80.6424 50.2758C80.6218 50.1108 80.5824 49.9552 80.5224 49.8108C80.4624 49.6702 80.3818 49.5502 80.2824 49.4508C80.1812 49.3552 80.0649 49.282 79.9299 49.2333C79.7949 49.1883 79.6412 49.1752 79.4724 49.1958C79.2418 49.2258 79.0637 49.3008 78.9399 49.4208C78.8199 49.5408 78.7262 49.6852 78.6624 49.8558C78.6024 50.0245 78.5593 50.2045 78.5349 50.3958C78.5087 50.5908 78.4749 50.7708 78.4299 50.9358C78.3887 51.1045 78.3287 51.247 78.2499 51.3633C78.1749 51.4833 78.0568 51.5527 77.8974 51.5733C77.8262 51.577 77.7549 51.5733 77.6799 51.5583C77.6087 51.547 77.5393 51.5152 77.4699 51.4608C77.4043 51.4102 77.3443 51.337 77.2899 51.2433C77.2337 51.1477 77.1962 51.022 77.1774 50.8683C77.1568 50.677 77.1662 50.512 77.2074 50.3733C77.2524 50.2327 77.3087 50.1145 77.3799 50.0208C77.4549 49.9252 77.5318 49.852 77.6124 49.8033C77.6968 49.7583 77.7699 49.7302 77.8299 49.7208L77.7774 49.2558C77.6424 49.2708 77.5149 49.3177 77.3949 49.3983C77.2749 49.477 77.1718 49.5858 77.0874 49.7208C77.0012 49.8595 76.9393 50.0245 76.8999 50.2158C76.8587 50.4108 76.8549 50.6302 76.8849 50.8758C76.9337 51.3202 77.0724 51.6427 77.2974 51.8433C77.5224 52.042 77.7924 52.1227 78.1074 52.0833C78.3418 52.057 78.5218 51.982 78.6474 51.8583C78.7712 51.7327 78.8668 51.5827 78.9324 51.4083C78.9962 51.2377 79.0449 51.052 79.0749 50.8533C79.1049 50.6527 79.1368 50.467 79.1724 50.2983C79.2118 50.1333 79.2662 49.9908 79.3374 49.8708C79.4068 49.7508 79.5137 49.6795 79.6599 49.6608C79.7237 49.6552 79.7912 49.6608 79.8624 49.6758C79.9374 49.6908 80.0068 49.7227 80.0724 49.7733C80.1418 49.822 80.2018 49.8933 80.2524 49.9833C80.3068 50.077 80.3443 50.1952 80.3649 50.3358C80.3799 50.4802 80.3724 50.6077 80.3424 50.7183C80.3162 50.8327 80.2768 50.9302 80.2224 51.0108C80.1718 51.0895 80.1118 51.1533 80.0424 51.1983C79.9768 51.2433 79.9112 51.2677 79.8474 51.2733L79.8924 51.6783Z" fill="#380F05"/>
</g>
<mask id="mask3_1446_38533" style="mask-type:luminance" maskUnits="userSpaceOnUse" x="121" y="124" width="11" height="12">
<path d="M121.192 124.631H131.52V135.071H121.192V124.631Z" fill="white"/>
</mask>
<g mask="url(#mask3_1446_38533)">
<path d="M126.322 124.631C125.822 128.856 125.417 129.261 121.192 129.761C121.2 129.763 121.209 129.763 121.219 129.765C125.419 130.264 125.824 130.676 126.322 134.891C126.821 130.667 127.226 130.262 131.452 129.761C127.226 129.261 126.821 128.856 126.322 124.631Z" fill="#380F05"/>
</g>
<mask id="mask4_1446_38533" style="mask-type:luminance" maskUnits="userSpaceOnUse" x="47" y="46" width="12" height="11">
<path d="M47.6323 46.0331H58.0723V56.4731H47.6323V46.0331Z" fill="white"/>
</mask>
<g mask="url(#mask4_1446_38533)">
<path d="M52.7623 46.0331C52.2617 50.2575 51.8567 50.6625 47.6323 51.1631C47.6398 51.1631 47.6492 51.165 47.6567 51.165H47.6586C51.8586 51.6638 52.2617 52.0763 52.7623 56.2931C53.2611 52.0669 53.6661 51.6619 57.8923 51.1631C53.6661 50.6625 53.2611 50.2575 52.7623 46.0331Z" fill="#380F05"/>
</g>
</svg>
