<svg width="92" height="99" viewBox="0 0 92 99" fill="none" xmlns="http://www.w3.org/2000/svg">
<g clip-path="url(#clip0_2614_17)">
<path d="M78.3445 97.37C73.0098 97.37 67.675 94.9 58.6822 84.63C51.5184 93.86 41.9158 98.02 31.7036 98.02C13.2606 98.02 0 86.19 0 70.72C0 58.11 6.70654 50.05 26.2165 41.47C19.5099 32.63 14.9373 25.74 14.9373 18.59C14.9373 7.8 23.4729 0 37.0384 0C52.4329 0 58.6822 7.28 58.6822 16.25C58.6822 23.66 54.4144 31.85 33.5327 40.43C37.1908 45.24 41.1537 50.18 45.1167 55.38C50.1466 62.14 56.091 69.94 61.7306 76.83C64.1693 72.8 66.6081 66.3 67.0653 58.76C67.2178 54.34 65.0839 52.26 56.2434 51.61V50.44H87.0325V51.61C77.5824 52.52 73.6195 53.95 71.0283 59.93C67.8275 67.34 65.5411 73.32 62.7975 78C70.2662 86.84 77.43 93.6 82.155 93.6C85.5083 93.6 88.0995 91.52 90.8431 88.01L91.91 88.53C88.5567 94.9 83.222 97.37 78.3445 97.37ZM7.77348 68.9C7.77348 84.37 19.8148 94.38 35.6666 94.38C44.507 94.38 52.4329 90.35 57.6152 83.46C52.4329 77.48 46.1836 69.03 37.9529 57.33C33.9899 51.74 30.3318 46.93 26.9786 42.51C17.8333 47.58 7.77348 54.47 7.77348 68.9ZM21.7962 15.34C21.7962 23.01 26.5213 30.94 32.7706 39.39C44.9643 33.28 51.9756 25.87 51.9756 16.64C51.9756 6.89 45.8788 1.43 36.8859 1.43C29.2649 1.43 21.7962 5.85 21.7962 15.34Z" fill="#FFFEFD"/>
</g>
<g clip-path="url(#clip1_2614_17)">
<path d="M78.3407 97.37C73.0063 97.37 67.6718 94.9 58.6794 84.63C51.5159 93.86 41.9138 98.02 31.7021 98.02C13.26 98.02 0 86.19 0 70.72C0 58.11 6.70621 50.05 26.2152 41.47C19.509 32.63 14.9366 25.74 14.9366 18.59C14.9366 7.8 23.4718 0 37.0366 0C52.4304 0 58.6794 7.28 58.6794 16.25C58.6794 23.66 54.4118 31.85 33.5311 40.43C37.189 45.24 41.1518 50.18 45.1145 55.38C50.1442 62.14 56.0883 69.94 61.7276 76.83C64.1663 72.8 66.6049 66.3 67.0621 58.76C67.2145 54.34 65.0807 52.26 56.2407 51.61V50.44H87.0283V51.61C77.5787 52.52 73.6159 53.95 71.0249 59.93C67.8242 67.34 65.538 73.32 62.7945 78C70.2628 86.84 77.4263 93.6 82.1511 93.6C85.5042 93.6 88.0952 91.52 90.8387 88.01L91.9056 88.53C88.5525 94.9 83.218 97.37 78.3407 97.37ZM7.7731 68.9C7.7731 84.37 19.8138 94.38 35.6649 94.38C44.5049 94.38 52.4304 90.35 57.6125 83.46C52.4304 77.48 46.1814 69.03 37.9511 57.33C33.9883 51.74 30.3304 46.93 26.9773 42.51C17.8325 47.58 7.7731 54.47 7.7731 68.9ZM21.7952 15.34C21.7952 23.01 26.52 30.94 32.769 39.39C44.9621 33.28 51.9731 25.87 51.9731 16.64C51.9731 6.89 45.8766 1.43 36.8842 1.43C29.2635 1.43 21.7952 5.85 21.7952 15.34Z" fill="#2B0202"/>
</g>
<defs>
<clipPath id="clip0_2614_17">
<rect width="45.955" height="99" fill="white" transform="translate(46)"/>
</clipPath>
<clipPath id="clip1_2614_17">
<rect width="45.955" height="99" fill="white"/>
</clipPath>
</defs>
</svg>
