<svg width="327" height="338" viewBox="0 0 327 338" fill="none" xmlns="http://www.w3.org/2000/svg">
<path d="M27.4901 160.733C23.9827 131.425 25.5607 101.993 31.9738 73.0182C32.9057 68.8097 36.7627 72.6383 63.954 66.5483C66.0343 66.0833 68.0968 65.5969 70.1398 65.0946C71.0557 63.3995 72.071 61.7114 73.1999 60.05C49.5232 65.6715 30.9425 67.5814 30.2804 68.1582C29.1054 69.1806 28.7397 69.6137 27.9179 73.1353C20.005 107.056 19.7991 142.994 26.1553 177.441C26.4695 171.962 26.915 166.333 27.4884 160.732L27.4901 160.733Z" fill="#2B0202"/>
<path d="M292.777 90.6121C288.126 86.1604 280.286 81.3874 276.956 80.2035C272.32 78.5528 231.143 74.6052 172.849 39.8773C151.066 26.902 153.78 24.6087 145.679 30.4041C142.842 32.4329 139.873 34.3553 136.8 36.1746C138.139 36.3788 139.466 36.6166 140.785 36.89C151.446 30.287 149.818 28.9202 152.328 30.8017C177.725 49.8475 223.104 72.39 267.099 81.3448C271.846 82.3104 274.512 80.9597 273.765 85.4078C272.657 91.9984 270.051 131.876 250.947 178.285C225.96 238.984 174.382 294.771 125.57 320.641C121.865 322.605 118.131 325.299 113.074 321.35C101.529 312.333 93.3695 305.245 82.7071 292.536C64.1743 270.446 58.0541 259.7 49.9086 240.468C48.6147 239.975 47.2408 239.446 45.6824 238.862C45.5013 238.794 45.322 238.727 45.1445 238.66C57.676 266.609 74.89 291.633 95.9717 311.222C99.9122 314.883 127.441 338.773 132.929 337.176C149.41 332.38 195.766 301.464 227.978 261.616C286.166 189.632 296.051 93.7521 292.775 90.6157L292.777 90.6121ZM290.441 93.0261C282.739 186.065 232.744 275.982 148.648 326.155C130.371 337.058 131.592 335.408 127.856 332.632C126.908 331.927 121.663 327.97 121.532 327.837C119.938 326.233 119.393 328.262 132.098 321.211C175.257 297.265 212.085 256.204 236.101 216.539C256.158 183.413 265.165 155.662 271.663 123.411C280.524 79.442 274.459 82.0637 280.721 85.5427C283.854 87.2822 286.694 89.4672 289.67 91.4428C290.467 91.9718 290.462 91.9895 290.441 93.0261Z" fill="#2B0202"/>
<path d="M98.161 97.3571C157.762 98.8854 157.022 106.289 157.749 99.2954C160.122 76.4707 147.581 63.6481 127.317 62.4766C117.104 67.514 106.725 71.3249 96.9999 74.2306C94.4244 77.7629 92.4881 82.0388 91.0681 87C90.0332 90.6174 89.7313 93.2586 89.7384 96.4909C89.7402 97.6535 89.6623 97.1388 98.161 97.3571Z" fill="#2B0202"/>
<path d="M59.1305 98.6352C61.8072 98.5855 60.9446 97.2614 61.0688 96.6224C61.5516 94.1392 62.0859 88.5532 63.8094 81.7195C54.9326 83.1608 49.187 83.7199 48.5639 84.185C47.8717 84.6997 47.2682 85.3352 47.0818 86.2582C45.9103 92.0234 44.9554 97.6821 44.1992 103.231C48.5906 100.513 54.6895 98.7187 59.1305 98.6352Z" fill="#2B0202"/>
<path d="M249.213 94.9431C246.957 94.1604 220.289 90.6707 185.576 73.4124C185.112 73.1834 184.658 72.9544 184.207 72.729C184.828 74.701 185.334 76.7476 185.716 78.867C189.415 99.4019 182.956 106.188 186 107.02C201.07 111.147 208.374 113.865 211.132 130.839C214.375 150.799 206.714 202.126 199.664 230.354C222.52 198.008 245.097 143.536 251.105 98.1275C251.135 95.8537 250.904 95.5289 249.215 94.9431H249.213Z" fill="#2B0202"/>
<path d="M157.333 256.154C136.335 256.154 119.968 257.888 72.4707 247.1C93.7139 282.181 118.873 300.192 122.597 299.056C131.781 296.255 144.55 286.063 149.823 282.055C163.633 271.561 172.416 263.367 180.655 254.098C173.181 255.689 164.368 255.763 157.333 256.154Z" fill="#2B0202"/>
<path d="M211.131 130.839C208.373 113.865 201.069 111.147 185.999 107.02C182.955 106.186 189.414 99.4019 185.715 78.8669C178.702 39.9323 129.916 25.9169 95.1263 41.6381C64.3318 55.5541 62.4769 89.3607 61.0676 96.6241C60.9433 97.2631 61.806 98.5854 59.1293 98.6351C52.4499 98.7612 42.0183 102.755 39.2936 107.938C26.9059 131.506 22.2856 204.704 28.0845 222.36C29.7193 227.337 28.933 232.596 45.6801 238.862C54.2303 242.06 57.2442 243.626 71.7211 246.931C119.797 257.908 136.225 256.156 157.333 256.156C170.908 255.403 191.113 255.824 195.529 244.26C203.144 224.318 215.033 154.86 211.129 130.841L211.131 130.839ZM64.9779 97.634C65.0844 92.7492 68.9628 75.537 74.5221 65.9077C80.2731 55.9446 86.0241 51.0846 93.8234 46.6755C103.559 41.173 121.636 39.0288 123.793 38.9862C136.235 38.7395 148.408 42.4635 158.025 47.563C171.902 54.9204 177.641 63.6321 180.454 74.772C182.994 84.8309 182.914 96.8424 181.544 104.338C181.025 107.169 181.443 105.795 162.189 103.026C161.508 102.929 161.343 102.755 161.446 101.986C168.432 49.8581 104.889 47.934 90.1616 78.2936C85.9939 86.8846 86.198 97.0128 86.1909 97.0607C86.0152 98.0529 77.9993 97.3323 77.9993 97.6038C64.4276 97.6038 64.9619 98.4168 64.9779 97.634ZM157.75 99.2954C157.022 106.289 157.762 98.8854 98.1615 97.3571C89.6628 97.1388 89.7391 97.6553 89.7374 96.4909C89.732 93.2586 90.032 90.6157 91.0668 87C95.6836 70.8617 105.78 61.9547 125.47 62.402C146.814 62.8866 160.192 75.7855 157.748 99.2936L157.75 99.2954ZM195.325 230.315C191.876 245.413 192.066 246.817 178.141 249.996C170.539 251.732 136.019 252.567 128.285 251.583C122.633 250.864 122.346 253.74 82.4403 245.442C23.3417 233.155 33.9828 228.301 29.8116 208.536C27.4065 155.125 38.5233 115.286 41.839 110.73C44.537 107.024 46.8037 106.539 49.0295 104.943C49.7289 104.443 49.4413 104.764 52.9966 103.584C55.5633 102.732 59.5624 102.6 59.605 102.6C96.2268 99.5919 127.053 102.675 163.46 107.631C181.459 110.08 202.735 111.816 206.033 125.654C211.5 148.594 200.302 208.538 195.327 230.314L195.325 230.315Z" fill="#2B0202"/>
<path d="M92.5631 142.827C86.9932 153.094 88.8374 166.763 99.0312 175.661C99.4625 176.038 99.6312 176.458 99.5513 177.003C98.7596 182.458 97.5136 195.303 97.5438 202.095C97.5952 213.44 98.0727 219.713 107.668 223.766C114.461 226.636 121.547 223.977 124.394 215.15C125.585 211.454 125.662 208.733 127.074 195.923C128.844 179.889 127.46 180.388 129.064 179.692C136.727 176.369 144.153 166.834 143.965 155.558C145.055 130.138 106.005 118.05 92.5613 142.826L92.5631 142.827ZM108.107 187.596C104.676 219.992 109.53 223.35 104.044 218.964C100.316 215.984 100.155 208.879 100.212 203.687C100.442 182.649 104.314 176.526 101.983 174.483C93.4417 167.003 89.0912 154.764 96.5853 142.646C98.3301 139.826 102.342 136.817 102.611 136.562C105.622 133.716 110.192 133.409 108.437 135.349C96.9101 148.101 101.34 162.194 109.626 168.607C111.227 169.846 110.027 169.438 108.103 187.595L108.107 187.596Z" fill="#2B0202"/>
<path d="M186.567 132.539C186.003 155.476 177.719 246.738 173.936 236.084C172.978 233.386 183.988 134.946 183.917 130.953C183.766 122.489 181.682 121.504 182.934 120.823C183.842 120.327 184.893 121.82 185.222 122.686C186.414 125.835 186.652 129.172 186.569 132.541L186.567 132.539Z" fill="#2B0202"/>
<path d="M19.5254 295.365C18.5066 295.019 27.9372 285.306 27.765 283.503C27.6212 281.994 25.8267 281.123 24.6108 282.204C22.9565 283.677 19.8627 286.934 17.4558 289.389C16.4405 290.426 16.973 281.888 13.462 275.327C12.626 273.765 10.5777 274.138 10.5191 276.036C10.4002 279.902 12.3473 290.154 13.0076 293.246C9.67064 292.401 0.0803873 289.76 0.000512249 293.246C-0.0172378 294.025 0.428288 294.485 1.02824 294.781C8.21692 298.323 10.1481 297.515 9.39552 298.516C5.38757 303.85 4.11489 305.25 3.42626 307.302C2.93459 308.763 3.32154 310.391 4.93494 310.403C6.70107 310.417 7.28682 308.955 11.2113 304.214C16.4068 297.937 13.6591 299.586 17.1026 309.113C17.9599 311.484 18.1747 312.079 19.2894 311.912C21.2135 311.624 19.9355 305.268 19.5343 301.8C19.3408 300.13 29.027 305.65 30.408 302.119C31.5599 299.176 26.3982 297.698 19.5254 295.362V295.365Z" fill="#2B0202"/>
<path d="M258.717 20.1784C257.336 19.7578 262.107 17.642 265.567 12.8353C266.564 11.449 265.313 9.9793 261.91 12.0969C254.899 16.4598 254.812 18.0804 254.602 17.0047C253.839 13.1033 253.427 10.116 252.201 7.92026C250.907 5.60211 247.499 4.91519 248.535 12.2673C249.817 21.3464 251.313 17.8266 243.764 18.2117C240.323 18.3875 239.089 20.4607 240.134 21.8239C240.75 22.6279 241.78 22.7859 243.896 23.2368C248.021 24.1154 247.222 22.5711 240.61 29.0623C239.914 29.7457 239.029 31.2704 239.962 32.3159C241.592 34.1388 244.391 31.3467 250.486 26.5471C251.308 25.8993 250.626 26.5294 252.638 32.2378C253.312 34.1495 253.731 35.4434 255.122 35.4523C256.294 35.4612 257.506 34.2009 257.196 31.8828C255.531 19.4862 254.537 27.8802 265.462 24.3124C269.227 23.0823 262.256 21.2576 258.717 20.1784Z" fill="#2B0202"/>
<path d="M255.414 317.684C253.971 323.157 262.53 323.375 262.049 318.611C262.372 315.229 256.63 313.069 255.414 317.684Z" fill="#2B0202"/>
<path d="M61.2289 0.0107973C58.7883 -0.138303 51.5286 2.60762 54.1218 8.02847C56.1258 12.2175 61.9478 13.286 65.3363 9.49819C69.1472 5.23817 65.2671 -0.276753 61.2289 0.0107973ZM60.3645 8.39057C56.598 8.65682 55.9767 4.29032 57.2938 3.84125C58.5185 3.42412 59.6953 2.79045 61.0514 2.8792C64.9174 3.13302 63.7849 8.687 60.3645 8.39057Z" fill="#2B0202"/>
<path d="M326.475 200.879C323.586 194.389 313.908 196.915 311.027 200.144C305.257 206.606 313.974 219.181 322.893 211.564C325.911 208.987 327.956 204.203 326.475 200.879ZM316.871 210.274C315.628 210.444 312.605 207.528 313.372 204.098C313.875 201.846 316.079 200.096 317.125 200.284C317.799 200.406 318.507 200.305 319.198 200.353C325.78 200.809 322.286 210.023 316.871 210.274Z" fill="#2B0202"/>
</svg>
