<svg width="29" height="99" viewBox="0 0 29 99" fill="none" xmlns="http://www.w3.org/2000/svg">
<path d="M66.8216 97.3703C62.2716 97.3703 57.7216 94.9003 50.0516 84.6303C43.9416 93.8603 35.7516 98.0203 27.0416 98.0203C11.3116 98.0203 0.00156265 86.1903 0.00156265 70.7203C0.00156265 58.1103 5.72156 50.0503 22.3616 41.4703C16.6416 32.6303 12.7416 25.7403 12.7416 18.5903C12.7416 7.80031 20.0216 0.000309587 31.5916 0.000309587C44.7216 0.000309587 50.0516 7.28031 50.0516 16.2503C50.0516 23.6603 46.4116 31.8503 28.6016 40.4303C31.7216 45.2403 35.1016 50.1803 38.4816 55.3803C42.7716 62.1403 47.8416 69.9403 52.6516 76.8303C54.7316 72.8003 56.8116 66.3003 57.2016 58.7603C57.3316 54.3403 55.5116 52.2603 47.9716 51.6103V50.4403H74.2316V51.6103C66.1716 52.5203 62.7916 53.9503 60.5816 59.9303C57.8516 67.3403 55.9016 73.3203 53.5616 78.0003C59.9316 86.8403 66.0416 93.6003 70.0716 93.6003C72.9316 93.6003 75.1416 91.5203 77.4816 88.0103L78.3916 88.5303C75.5316 94.9003 70.9816 97.3703 66.8216 97.3703ZM6.63156 68.9003C6.63156 84.3703 16.9016 94.3803 30.4216 94.3803C37.9616 94.3803 44.7216 90.3503 49.1416 83.4603C44.7216 77.4803 39.3916 69.0303 32.3716 57.3303C28.9916 51.7403 25.8716 46.9303 23.0116 42.5103C15.2116 47.5803 6.63156 54.4703 6.63156 68.9003ZM18.5916 15.3403C18.5916 23.0103 22.6216 30.9403 27.9516 39.3903C38.3516 33.2803 44.3316 25.8703 44.3316 16.6403C44.3316 6.89031 39.1316 1.43031 31.4616 1.43031C24.9616 1.43031 18.5916 5.85031 18.5916 15.3403Z" fill="#2B0202"/>
</svg>
