<svg width="51" height="99" viewBox="0 0 51 99" fill="none" xmlns="http://www.w3.org/2000/svg">
<path d="M38.72 97.3703C34.17 97.3703 29.62 94.9003 21.95 84.6303C15.84 93.8603 7.65 98.0203 -1.06 98.0203C-16.79 98.0203 -28.1 86.1903 -28.1 70.7203C-28.1 58.1103 -22.38 50.0503 -5.74 41.4703C-11.46 32.6303 -15.36 25.7403 -15.36 18.5903C-15.36 7.80031 -8.08 0.000309587 3.49 0.000309587C16.62 0.000309587 21.95 7.28031 21.95 16.2503C21.95 23.6603 18.31 31.8503 0.5 40.4303C3.62 45.2403 7 50.1803 10.38 55.3803C14.67 62.1403 19.74 69.9403 24.55 76.8303C26.63 72.8003 28.71 66.3003 29.1 58.7603C29.23 54.3403 27.41 52.2603 19.87 51.6103V50.4403H46.13V51.6103C38.07 52.5203 34.69 53.9503 32.48 59.9303C29.75 67.3403 27.8 73.3203 25.46 78.0003C31.83 86.8403 37.94 93.6003 41.97 93.6003C44.83 93.6003 47.04 91.5203 49.38 88.0103L50.29 88.5303C47.43 94.9003 42.88 97.3703 38.72 97.3703ZM-21.47 68.9003C-21.47 84.3703 -11.2 94.3803 2.32 94.3803C9.86 94.3803 16.62 90.3503 21.04 83.4603C16.62 77.4803 11.29 69.0303 4.27 57.3303C0.890003 51.7403 -2.23 46.9303 -5.09 42.5103C-12.89 47.5803 -21.47 54.4703 -21.47 68.9003ZM-9.51 15.3403C-9.51 23.0103 -5.48 30.9403 -0.149999 39.3903C10.25 33.2803 16.23 25.8703 16.23 16.6403C16.23 6.89031 11.03 1.43031 3.36 1.43031C-3.14 1.43031 -9.51 5.85031 -9.51 15.3403Z" fill="#FFFEFD"/>
</svg>
