<!-- <svg width="88" height="88" viewBox="15 5 58 75" fill="none" xmlns="http://www.w3.org/2000/svg">
<g clip-path="url(#clip0_1067_686)">
<mask id="mask0_1067_686" style="mask-type:luminance" maskUnits="userSpaceOnUse" x="40" y="7" width="32" height="65">
<path d="M71.808 7.97867H40.128V71.808H71.808V7.97867Z" fill="white"/>
</mask>
<g mask="url(#mask0_1067_686)">
<path d="M71.3039 49.1883C71.4231 49.2277 71.4634 49.3056 71.4249 49.423L68.4549 55.715C68.4155 55.7956 68.3568 55.836 68.2789 55.836H46.0809C46.0809 55.836 46.0607 55.836 46.0222 55.836H42.9972C42.8771 55.836 42.8176 55.7755 42.8176 55.6563C42.8176 55.5371 42.8771 55.4766 42.9972 55.4766C43.7865 55.4766 44.4575 55.2007 45.0102 54.648C45.5648 54.0934 45.8426 53.4215 45.8426 52.6313V17.3763C45.8426 16.5843 45.5648 15.9124 45.0102 15.3596C44.4575 14.8051 43.7865 14.5273 42.9972 14.5273C42.8771 14.5273 42.8176 14.4686 42.8176 14.3513C42.8176 14.2321 42.8771 14.1716 42.9972 14.1716H51.1262C51.2454 14.1716 51.3059 14.2321 51.3059 14.3513C51.3059 14.4686 51.2454 14.5273 51.1262 14.5273C50.3342 14.5273 49.6605 14.8051 49.1059 15.3596C48.5531 15.9124 48.2772 16.5843 48.2772 17.3763V52.6313C48.2772 53.4215 48.5531 54.0934 49.1059 54.648C49.6605 55.2007 50.3342 55.4766 51.1262 55.4766H61.9869C63.1327 55.4766 64.3006 55.1906 65.4886 54.6186C66.6766 54.0448 67.7637 53.2931 68.7519 52.3636C69.7419 51.4323 70.5137 50.3937 71.0692 49.247C71.1077 49.1278 71.1866 49.1076 71.3039 49.1883Z" fill="#FFFEFD" stroke="#FFFEFD" stroke-width="1"/>
</g>
<mask id="mask1_1067_686" style="mask-type:luminance" maskUnits="userSpaceOnUse" x="19" y="24" width="39" height="64">
<path d="M57.9627 24.4053H19.2427V88H57.9627V24.4053Z" fill="white"/>
</mask>
<g mask="url(#mask1_1067_686)">
<path d="M55.9229 71.9219C56.0008 71.9219 56.0595 71.943 56.0989 71.9842C56.1374 72.0236 56.1576 72.063 56.1576 72.1015C56.1576 72.2207 56.0787 72.2812 55.9229 72.2812H52.8942C52.8942 72.2812 52.7256 72.2812 52.3882 72.2812C52.0527 72.2812 51.7172 72.2812 51.3799 72.2812C51.0444 72.2812 50.8776 72.2812 50.8776 72.2812C50.8776 72.2812 50.6191 72.2812 50.1039 72.2812C49.5906 72.2812 49.0855 72.2812 48.5896 72.2812C48.0955 72.2812 47.8489 72.2812 47.8489 72.2812C47.6921 72.2812 47.6142 72.2207 47.6142 72.1015C47.6142 71.9824 47.6921 71.9219 47.8489 71.9219C48.6409 71.9219 49.3128 71.646 49.8656 71.0932C50.4201 70.5386 50.6979 69.8667 50.6979 69.0765V50.7945C50.6979 49.0153 50.0837 47.4826 48.8572 46.1965C47.6326 44.9114 46.1292 44.2083 44.3472 44.0882C44.1905 44.0882 44.0722 44.0882 43.9916 44.0882C42.1729 44.0882 40.5119 44.6034 39.0086 45.6319C37.8985 46.4239 37.0075 47.413 36.3356 48.5982C36.3356 48.6404 36.3154 48.7192 36.2769 48.8365C35.0889 51.1319 33.2886 52.2795 30.8759 52.2795C30.7971 52.2795 30.7182 52.2795 30.6376 52.2795C29.2928 52.2016 28.0865 51.7259 27.0186 50.8532C26.0698 50.0245 25.4364 48.9777 25.1192 47.7109C25.0798 47.4716 25.0404 47.214 25.0019 46.9372C24.9597 46.7392 24.9396 46.5412 24.9396 46.3432V33.8215C24.9396 33.0295 24.6618 32.3576 24.1072 31.8049C23.5545 31.2503 22.8835 30.9725 22.0942 30.9725C21.9741 30.9725 21.9146 30.9139 21.9146 30.7965C21.9146 30.6774 21.9741 30.6169 22.0942 30.6169H25.1779C25.1779 30.6169 25.3447 30.6169 25.6802 30.6169C26.0176 30.6169 26.3549 30.6169 26.6922 30.6169C27.0296 30.6169 27.1982 30.6169 27.1982 30.6169C27.1982 30.6169 27.4448 30.6169 27.9389 30.6169C28.4321 30.6169 28.9362 30.6169 29.4496 30.6169C29.9647 30.6169 30.2232 30.6169 30.2232 30.6169C30.3424 30.6169 30.4029 30.6774 30.4029 30.7965C30.4029 30.9139 30.3424 30.9725 30.2232 30.9725C29.4312 30.9725 28.7575 31.2503 28.2029 31.8049C27.6501 32.3576 27.3742 33.0295 27.3742 33.8215V48.3012C27.3742 48.3012 27.3742 48.3223 27.3742 48.3635C27.3742 49.2729 27.6905 50.064 28.3239 50.7359C28.9564 51.4087 29.7484 51.7845 30.6999 51.8652C30.7384 51.8652 30.7971 51.8652 30.8759 51.8652C33.1318 51.8652 34.8139 50.7762 35.9212 48.5982C35.9212 48.5597 35.9597 48.501 36.0386 48.4222C36.7105 47.1563 37.6409 46.1269 38.8289 45.3349C40.3707 44.2275 42.0922 43.6739 43.9916 43.6739C44.0722 43.6739 44.1905 43.694 44.3472 43.7325C47.0771 43.8114 49.3128 44.9196 51.0536 47.0582C51.8841 48.0464 52.4588 49.173 52.7769 50.4389C52.9749 51.2309 53.0739 52.0229 53.0739 52.8149V69.0765C53.1124 69.8667 53.4085 70.5386 53.9612 71.0932C54.5158 71.646 55.1694 71.9219 55.9229 71.9219ZM30.2232 71.9219C30.2617 71.9219 30.3011 71.943 30.3406 71.9842C30.3818 72.0236 30.4029 72.063 30.4029 72.1015C30.4029 72.2207 30.3424 72.2812 30.2232 72.2812H27.1982C27.1982 72.2812 27.0296 72.2812 26.6922 72.2812C26.3549 72.2812 26.0176 72.2812 25.6802 72.2812C25.3447 72.2812 25.1779 72.2812 25.1779 72.2812C25.1779 72.2812 24.9194 72.2812 24.4042 72.2812C23.8909 72.2812 23.3776 72.2812 22.8642 72.2812C22.3509 72.2812 22.0942 72.2812 22.0942 72.2812C21.9741 72.2812 21.9146 72.2207 21.9146 72.1015C21.9146 71.9824 21.9741 71.9219 22.0942 71.9219C22.8835 71.9219 23.5545 71.646 24.1072 71.0932C24.6618 70.5386 24.9396 69.8667 24.9396 69.0765V51.9825C24.9396 51.9046 24.9799 51.845 25.0606 51.8029C25.1385 51.7644 25.2182 51.7845 25.2989 51.8652C25.8901 52.4574 26.5428 52.9313 27.2569 53.2879C27.3348 53.3273 27.3742 53.3869 27.3742 53.4675V69.0765C27.3742 69.8667 27.6501 70.5386 28.2029 71.0932C28.7575 71.646 29.4312 71.9219 30.2232 71.9219ZM47.8489 30.9725C47.7701 30.9725 47.7114 30.9533 47.6729 30.9139C47.6335 30.8754 47.6142 30.836 47.6142 30.7965C47.6142 30.6774 47.6921 30.6169 47.8489 30.6169H50.8776C50.8776 30.6169 51.0444 30.6169 51.3799 30.6169C51.7172 30.6169 52.0527 30.6169 52.3882 30.6169C52.7256 30.6169 52.8942 30.6169 52.8942 30.6169C52.8942 30.6169 53.1509 30.6169 53.6642 30.6169C54.1794 30.6169 54.6845 30.6169 55.1786 30.6169C55.6745 30.6169 55.9229 30.6169 55.9229 30.6169C56.0787 30.6169 56.1576 30.6774 56.1576 30.7965C56.1576 30.9139 56.0787 30.9725 55.9229 30.9725C55.1694 30.9725 54.5158 31.2503 53.9612 31.8049C53.4085 32.3576 53.1124 33.0295 53.0739 33.8215V45.5145C53.0739 45.5934 53.0336 45.652 52.9529 45.6905C52.9529 45.6905 52.9327 45.6905 52.8942 45.6905C52.8154 45.6905 52.7567 45.6713 52.7182 45.6319C52.1627 44.9205 51.5091 44.288 50.7566 43.7325C50.7171 43.694 50.6979 43.6354 50.6979 43.5565V33.8215C50.6979 33.0295 50.4201 32.3576 49.8656 31.8049C49.3128 31.2503 48.6409 30.9725 47.8489 30.9725Z" fill="#FFFEFD" stroke="#FFFEFD" stroke-width="1"/>
</g>
</g>
<defs>
<clipPath id="clip0_1067_686">
<rect width="88" height="88" fill="white"/>
</clipPath>
</defs>
</svg> -->





<svg width="88" height="88" viewBox="0 0 88 88" fill="none" xmlns="http://www.w3.org/2000/svg">
<g clip-path="url(#clip0_1067_686)">
<mask id="mask0_1067_686" style="mask-type:luminance" maskUnits="userSpaceOnUse" x="40" y="7" width="32" height="65">
<path d="M71.808 7.97867H40.128V71.808H71.808V7.97867Z" fill="white"/>
</mask>
<g mask="url(#mask0_1067_686)">
<path d="M71.3039 49.1883C71.4231 49.2277 71.4634 49.3056 71.4249 49.423L68.4549 55.715C68.4155 55.7956 68.3568 55.836 68.2789 55.836H46.0809C46.0809 55.836 46.0607 55.836 46.0222 55.836H42.9972C42.8771 55.836 42.8176 55.7755 42.8176 55.6563C42.8176 55.5371 42.8771 55.4766 42.9972 55.4766C43.7865 55.4766 44.4575 55.2007 45.0102 54.648C45.5648 54.0934 45.8426 53.4215 45.8426 52.6313V17.3763C45.8426 16.5843 45.5648 15.9124 45.0102 15.3596C44.4575 14.8051 43.7865 14.5273 42.9972 14.5273C42.8771 14.5273 42.8176 14.4686 42.8176 14.3513C42.8176 14.2321 42.8771 14.1716 42.9972 14.1716H51.1262C51.2454 14.1716 51.3059 14.2321 51.3059 14.3513C51.3059 14.4686 51.2454 14.5273 51.1262 14.5273C50.3342 14.5273 49.6605 14.8051 49.1059 15.3596C48.5531 15.9124 48.2772 16.5843 48.2772 17.3763V52.6313C48.2772 53.4215 48.5531 54.0934 49.1059 54.648C49.6605 55.2007 50.3342 55.4766 51.1262 55.4766H61.9869C63.1327 55.4766 64.3006 55.1906 65.4886 54.6186C66.6766 54.0448 67.7637 53.2931 68.7519 52.3636C69.7419 51.4323 70.5137 50.3937 71.0692 49.247C71.1077 49.1278 71.1866 49.1076 71.3039 49.1883Z" fill="#FFFEFD" stroke="#FFFEFD" stroke-width="1.2"/>
</g>
<mask id="mask1_1067_686" style="mask-type:luminance" maskUnits="userSpaceOnUse" x="19" y="24" width="39" height="64">
<path d="M57.9627 24.4053H19.2427V88H57.9627V24.4053Z" fill="white"/>
</mask>
<g mask="url(#mask1_1067_686)">
<path d="M55.9229 71.9219C56.0008 71.9219 56.0595 71.943 56.0989 71.9842C56.1374 72.0236 56.1576 72.063 56.1576 72.1015C56.1576 72.2207 56.0787 72.2812 55.9229 72.2812H52.8942C52.8942 72.2812 52.7256 72.2812 52.3882 72.2812C52.0527 72.2812 51.7172 72.2812 51.3799 72.2812C51.0444 72.2812 50.8776 72.2812 50.8776 72.2812C50.8776 72.2812 50.6191 72.2812 50.1039 72.2812C49.5906 72.2812 49.0855 72.2812 48.5896 72.2812C48.0955 72.2812 47.8489 72.2812 47.8489 72.2812C47.6921 72.2812 47.6142 72.2207 47.6142 72.1015C47.6142 71.9824 47.6921 71.9219 47.8489 71.9219C48.6409 71.9219 49.3128 71.646 49.8656 71.0932C50.4201 70.5386 50.6979 69.8667 50.6979 69.0765V50.7945C50.6979 49.0153 50.0837 47.4826 48.8572 46.1965C47.6326 44.9114 46.1292 44.2083 44.3472 44.0882C44.1905 44.0882 44.0722 44.0882 43.9916 44.0882C42.1729 44.0882 40.5119 44.6034 39.0086 45.6319C37.8985 46.4239 37.0075 47.413 36.3356 48.5982C36.3356 48.6404 36.3154 48.7192 36.2769 48.8365C35.0889 51.1319 33.2886 52.2795 30.8759 52.2795C30.7971 52.2795 30.7182 52.2795 30.6376 52.2795C29.2928 52.2016 28.0865 51.7259 27.0186 50.8532C26.0698 50.0245 25.4364 48.9777 25.1192 47.7109C25.0798 47.4716 25.0404 47.214 25.0019 46.9372C24.9597 46.7392 24.9396 46.5412 24.9396 46.3432V33.8215C24.9396 33.0295 24.6618 32.3576 24.1072 31.8049C23.5545 31.2503 22.8835 30.9725 22.0942 30.9725C21.9741 30.9725 21.9146 30.9139 21.9146 30.7965C21.9146 30.6774 21.9741 30.6169 22.0942 30.6169H25.1779C25.1779 30.6169 25.3447 30.6169 25.6802 30.6169C26.0176 30.6169 26.3549 30.6169 26.6922 30.6169C27.0296 30.6169 27.1982 30.6169 27.1982 30.6169C27.1982 30.6169 27.4448 30.6169 27.9389 30.6169C28.4321 30.6169 28.9362 30.6169 29.4496 30.6169C29.9647 30.6169 30.2232 30.6169 30.2232 30.6169C30.3424 30.6169 30.4029 30.6774 30.4029 30.7965C30.4029 30.9139 30.3424 30.9725 30.2232 30.9725C29.4312 30.9725 28.7575 31.2503 28.2029 31.8049C27.6501 32.3576 27.3742 33.0295 27.3742 33.8215V48.3012C27.3742 48.3012 27.3742 48.3223 27.3742 48.3635C27.3742 49.2729 27.6905 50.064 28.3239 50.7359C28.9564 51.4087 29.7484 51.7845 30.6999 51.8652C30.7384 51.8652 30.7971 51.8652 30.8759 51.8652C33.1318 51.8652 34.8139 50.7762 35.9212 48.5982C35.9212 48.5597 35.9597 48.501 36.0386 48.4222C36.7105 47.1563 37.6409 46.1269 38.8289 45.3349C40.3707 44.2275 42.0922 43.6739 43.9916 43.6739C44.0722 43.6739 44.1905 43.694 44.3472 43.7325C47.0771 43.8114 49.3128 44.9196 51.0536 47.0582C51.8841 48.0464 52.4588 49.173 52.7769 50.4389C52.9749 51.2309 53.0739 52.0229 53.0739 52.8149V69.0765C53.1124 69.8667 53.4085 70.5386 53.9612 71.0932C54.5158 71.646 55.1694 71.9219 55.9229 71.9219ZM30.2232 71.9219C30.2617 71.9219 30.3011 71.943 30.3406 71.9842C30.3818 72.0236 30.4029 72.063 30.4029 72.1015C30.4029 72.2207 30.3424 72.2812 30.2232 72.2812H27.1982C27.1982 72.2812 27.0296 72.2812 26.6922 72.2812C26.3549 72.2812 26.0176 72.2812 25.6802 72.2812C25.3447 72.2812 25.1779 72.2812 25.1779 72.2812C25.1779 72.2812 24.9194 72.2812 24.4042 72.2812C23.8909 72.2812 23.3776 72.2812 22.8642 72.2812C22.3509 72.2812 22.0942 72.2812 22.0942 72.2812C21.9741 72.2812 21.9146 72.2207 21.9146 72.1015C21.9146 71.9824 21.9741 71.9219 22.0942 71.9219C22.8835 71.9219 23.5545 71.646 24.1072 71.0932C24.6618 70.5386 24.9396 69.8667 24.9396 69.0765V51.9825C24.9396 51.9046 24.9799 51.845 25.0606 51.8029C25.1385 51.7644 25.2182 51.7845 25.2989 51.8652C25.8901 52.4574 26.5428 52.9313 27.2569 53.2879C27.3348 53.3273 27.3742 53.3869 27.3742 53.4675V69.0765C27.3742 69.8667 27.6501 70.5386 28.2029 71.0932C28.7575 71.646 29.4312 71.9219 30.2232 71.9219ZM47.8489 30.9725C47.7701 30.9725 47.7114 30.9533 47.6729 30.9139C47.6335 30.8754 47.6142 30.836 47.6142 30.7965C47.6142 30.6774 47.6921 30.6169 47.8489 30.6169H50.8776C50.8776 30.6169 51.0444 30.6169 51.3799 30.6169C51.7172 30.6169 52.0527 30.6169 52.3882 30.6169C52.7256 30.6169 52.8942 30.6169 52.8942 30.6169C52.8942 30.6169 53.1509 30.6169 53.6642 30.6169C54.1794 30.6169 54.6845 30.6169 55.1786 30.6169C55.6745 30.6169 55.9229 30.6169 55.9229 30.6169C56.0787 30.6169 56.1576 30.6774 56.1576 30.7965C56.1576 30.9139 56.0787 30.9725 55.9229 30.9725C55.1694 30.9725 54.5158 31.2503 53.9612 31.8049C53.4085 32.3576 53.1124 33.0295 53.0739 33.8215V45.5145C53.0739 45.5934 53.0336 45.652 52.9529 45.6905C52.9529 45.6905 52.9327 45.6905 52.8942 45.6905C52.8154 45.6905 52.7567 45.6713 52.7182 45.6319C52.1627 44.9205 51.5091 44.288 50.7566 43.7325C50.7171 43.694 50.6979 43.6354 50.6979 43.5565V33.8215C50.6979 33.0295 50.4201 32.3576 49.8656 31.8049C49.3128 31.2503 48.6409 30.9725 47.8489 30.9725Z" fill="#FFFEFD" stroke="#FFFEFD" stroke-width="1.2"/>
</g>
<mask id="mask2_1067_686" style="mask-type:luminance" maskUnits="userSpaceOnUse" x="5" y="5" width="38" height="35">
<path d="M42.4747 5.632H5.632V39.6587H42.4747V5.632Z" fill="white"/>
</mask>
<g mask="url(#mask2_1067_686)">
<path d="M18.5841 37.4977L19.2257 35.7267L19.0717 35.6057L18.0047 36.2767L17.9937 36.2657L18.3824 35.0484L18.2541 34.942L16.6334 35.9174L16.7764 36.0347L17.9864 35.305L17.9974 35.3124L17.5574 36.6654L17.6087 36.7094L18.8151 35.9577L18.8261 35.965L18.3421 37.3034L18.5841 37.4977Z" fill="#FFFEFD" stroke="#FFFEFD" stroke-width="0.3"/>
<path d="M15.2488 32.5284L15.1828 32.5724C15.0508 32.6604 14.9508 32.7557 14.8821 32.8584C14.8115 32.9592 14.7666 33.0628 14.7464 33.1701C14.7244 33.2782 14.7272 33.3846 14.7538 33.4891C14.7785 33.5917 14.8225 33.6907 14.8858 33.7861C14.9518 33.886 15.0315 33.9667 15.1241 34.0281C15.2148 34.0886 15.3148 34.1289 15.4248 34.1491C15.5348 34.1683 15.6484 34.1637 15.7658 34.1344C15.8813 34.1069 15.9986 34.0537 16.1178 33.9731C16.2158 33.9071 16.3011 33.8273 16.3744 33.7347C16.4459 33.6412 16.4973 33.5404 16.5284 33.4304C16.5605 33.3186 16.5669 33.1994 16.5468 33.0747C16.5275 32.9482 16.4753 32.8199 16.3891 32.6897C16.3038 32.5632 16.2021 32.4615 16.0848 32.3854C15.9674 32.3102 15.8418 32.2626 15.7071 32.2424L15.6778 32.3964C15.7438 32.4138 15.8043 32.4312 15.8574 32.4477C15.9115 32.4652 15.9601 32.4862 16.0041 32.5101C16.0463 32.5348 16.0866 32.5632 16.1251 32.5944C16.1645 32.6265 16.2012 32.6677 16.2351 32.7191C16.2718 32.7732 16.3029 32.8382 16.3268 32.9134C16.3515 32.9867 16.3598 33.0637 16.3524 33.1444C16.3451 33.2251 16.3158 33.3094 16.2644 33.3974C16.2113 33.4836 16.1242 33.5661 16.0041 33.6467L15.2488 32.5284ZM15.8831 33.7274C15.8052 33.7806 15.7236 33.8246 15.6374 33.8594C15.5522 33.8933 15.4706 33.9117 15.3918 33.9144C15.3111 33.9162 15.2359 33.9016 15.1644 33.8704C15.0938 33.8411 15.0352 33.7907 14.9884 33.7201C14.8931 33.5807 14.8738 33.4359 14.9298 33.2837C14.9866 33.1325 15.1094 32.9922 15.3001 32.8621L15.8831 33.7274Z" fill="#FFFEFD" stroke="#FFFEFD" stroke-width="0.3"/>
<path d="M12.363 29.8909L12.4547 30.1769L13.4117 29.8652L13.4153 29.8799C13.364 29.9221 13.3255 29.9679 13.298 30.0192C13.2687 30.0706 13.2503 30.1237 13.243 30.1769C13.2338 30.231 13.2311 30.286 13.2357 30.3419C13.2412 30.3987 13.2522 30.4537 13.2687 30.5069C13.3053 30.6224 13.3603 30.7196 13.4337 30.8002C13.507 30.8809 13.5941 30.9432 13.694 30.9872C13.7921 31.0331 13.9021 31.0569 14.024 31.0569C14.1441 31.0587 14.2715 31.0386 14.4053 30.9946C14.5401 30.9506 14.6565 30.8928 14.7537 30.8222C14.849 30.7489 14.9251 30.6646 14.981 30.5692C15.0351 30.4739 15.0681 30.3731 15.08 30.2649C15.0901 30.1576 15.0763 30.0467 15.0397 29.9312C14.9544 29.6672 14.7922 29.527 14.552 29.5096L14.5483 29.4949L14.8233 29.4069L14.7317 29.1209L12.363 29.8909ZM14.1487 29.6269C14.222 29.6031 14.2972 29.593 14.3723 29.5976C14.4457 29.6003 14.5144 29.6141 14.5777 29.6379C14.6391 29.6626 14.6932 29.7002 14.739 29.7516C14.7857 29.8011 14.8197 29.857 14.8417 29.9202C14.8664 29.9936 14.8765 30.066 14.871 30.1366C14.8637 30.2081 14.8398 30.2759 14.7977 30.3419C14.7564 30.4079 14.695 30.4702 14.6143 30.5289C14.5337 30.5857 14.4301 30.6343 14.3027 30.6756C14.1762 30.7177 14.0634 30.7397 13.9653 30.7416C13.8654 30.7416 13.7783 30.7269 13.705 30.6976C13.6317 30.6664 13.5721 30.6233 13.5253 30.5692C13.4795 30.5161 13.4447 30.4537 13.4227 30.3822C13.4034 30.3217 13.397 30.2576 13.4043 30.1916C13.4098 30.1256 13.4318 30.0632 13.4703 30.0046C13.507 29.9459 13.5574 29.8927 13.6207 29.8432C13.6848 29.7919 13.7627 29.7516 13.8553 29.7222L14.1487 29.6269Z" fill="#FFFEFD" stroke="#FFFEFD" stroke-width="0.3"/>
<path d="M11.8957 25.9328L11.903 26.2335L12.9077 26.2005V26.2151C12.8472 26.2426 12.7968 26.2765 12.7573 26.3178C12.7161 26.3572 12.6831 26.4021 12.6583 26.4535C12.6345 26.503 12.6171 26.5552 12.607 26.6111C12.5978 26.668 12.5923 26.7239 12.5923 26.7798C12.5978 26.8999 12.6235 27.009 12.6693 27.1061C12.7161 27.2042 12.7812 27.2885 12.8637 27.3591C12.9471 27.4306 13.0461 27.4838 13.1607 27.5205C13.2762 27.5553 13.4045 27.57 13.5457 27.5645C13.6878 27.5599 13.8161 27.537 13.9307 27.4948C14.0434 27.4508 14.1397 27.3912 14.2203 27.3151C14.2992 27.24 14.3588 27.152 14.4 27.0511C14.4422 26.9512 14.4596 26.8412 14.455 26.7211C14.4477 26.4425 14.3303 26.2619 14.103 26.1785V26.1638L14.3927 26.1528L14.3853 25.8521L11.8957 25.9328ZM13.6813 26.1748C13.7602 26.173 13.8344 26.184 13.905 26.2078C13.9765 26.2325 14.0388 26.2655 14.092 26.3068C14.1433 26.349 14.1855 26.4003 14.2167 26.4608C14.2488 26.5195 14.2662 26.5836 14.268 26.6515C14.2708 26.7275 14.2598 26.8 14.235 26.8678C14.2084 26.9338 14.1672 26.9943 14.1103 27.0475C14.0517 27.0988 13.9765 27.141 13.883 27.1721C13.7877 27.2042 13.6731 27.2225 13.5383 27.2271C13.4045 27.2326 13.2908 27.2216 13.1973 27.1941C13.102 27.1675 13.0232 27.13 12.959 27.0805C12.8958 27.0319 12.8508 26.9741 12.8233 26.9081C12.794 26.8421 12.7784 26.7725 12.7757 26.6991C12.7738 26.6331 12.7848 26.5708 12.8087 26.5121C12.8334 26.4516 12.8728 26.3975 12.926 26.3508C12.9773 26.3022 13.0415 26.2628 13.1167 26.2335C13.19 26.2041 13.2762 26.1885 13.3733 26.1858L13.6813 26.1748Z" fill="#FFFEFD" stroke="#FFFEFD" stroke-width="0.3"/>
<path d="M12.8897 23.6229L14.6277 23.9932L14.69 23.6999L12.952 23.3296L12.8897 23.6229ZM12.3287 23.5532C12.3782 23.5633 12.4259 23.5551 12.4717 23.5276C12.5184 23.4982 12.5469 23.4579 12.556 23.4066C12.5661 23.3552 12.556 23.3067 12.5267 23.2599C12.4974 23.2141 12.4589 23.1857 12.4094 23.1756C12.3562 23.1637 12.3067 23.1737 12.2627 23.2049C12.2169 23.2342 12.1884 23.2746 12.1784 23.3259C12.1692 23.3772 12.1784 23.4249 12.2077 23.4689C12.2352 23.5129 12.2755 23.5413 12.3287 23.5532Z" fill="#FFFEFD" stroke="#FFFEFD" stroke-width="0.3"/>
<path d="M14.7077 21.9344L14.819 21.8831L14.7077 21.6007L15.2247 21.4138L15.1183 21.1278L14.6013 21.3147L14.4803 21.0067L14.369 21.058L14.4863 21.3587L13.3717 21.7584C13.3469 21.7676 13.3176 21.7804 13.2837 21.7969C13.2489 21.8115 13.2205 21.8299 13.1966 21.8519C13.171 21.8739 13.1527 21.8987 13.1416 21.928C13.1306 21.9592 13.1343 21.9967 13.1499 22.0389C13.1683 22.0921 13.2022 22.1278 13.2545 22.148C13.3077 22.1682 13.3626 22.182 13.4186 22.1912L13.5176 21.9748C13.4442 21.9638 13.3829 21.9381 13.3352 21.8959C13.2893 21.8556 13.2755 21.7987 13.2947 21.7254C13.3066 21.6814 13.3323 21.6466 13.3717 21.6209C13.413 21.5952 13.4589 21.5769 13.5102 21.5659L14.5406 21.1883L14.7077 21.9344Z" fill="#FFFEFD" stroke="#FFFEFD" stroke-width="0.3"/>
<path d="M17.1387 19.8954L17.1937 19.7671L16.7287 19.4041C16.6664 19.3527 16.5976 19.3188 16.5234 19.3024C16.451 19.2842 16.3768 19.2823 16.3016 19.2969C16.2264 19.3115 16.153 19.3408 16.0815 19.3848C16.009 19.4279 15.9448 19.4847 15.8889 19.5544C15.8128 19.6488 15.764 19.7478 15.7421 19.8514C15.7201 19.955 15.7274 20.055 15.7641 20.1503C15.8008 20.2457 15.8659 20.3337 15.9594 20.4143C16.0455 20.4894 16.1334 20.5408 16.2232 20.5701C16.3148 20.5994 16.4028 20.6085 16.4881 20.5975C16.5743 20.5866 16.6568 20.5591 16.7362 20.517C16.8149 20.473 16.8855 20.4162 16.9488 20.3466L17.4138 20.7096L17.4688 20.5813L17.1387 19.8954ZM16.5404 20.3503C16.4597 20.4418 16.3644 20.4958 16.2544 20.5132C16.1444 20.5297 16.0317 20.4894 15.9162 20.3924C15.8126 20.3054 15.7549 20.2063 15.742 20.0944C15.7292 19.9817 15.7531 19.8679 15.8136 19.7533C15.8723 19.6396 15.9539 19.5324 16.0584 19.4325C16.0968 19.3959 16.139 19.3684 16.1848 19.3501C16.2288 19.3317 16.2755 19.3226 16.3258 19.3226C16.3762 19.3226 16.4266 19.3336 16.4788 19.3574C16.532 19.3794 16.5852 19.4142 16.6384 19.4619L16.9228 19.6819L16.5404 20.3503Z" fill="#FFFEFD" stroke="#FFFEFD" stroke-width="0.3"/>
<path d="M19.3797 17.1929L19.4567 17.0719C19.5099 16.9857 19.5448 16.8995 19.5613 16.8133C19.5778 16.7262 19.5778 16.6437 19.5613 16.5658C19.5448 16.4869 19.5127 16.4136 19.4659 16.3458C19.4182 16.277 19.3577 16.2156 19.2843 16.1624C19.2073 16.1065 19.1276 16.0671 19.0451 16.0451C18.9644 16.0222 18.8838 16.0176 18.8031 16.0304C18.7224 16.0433 18.6454 16.0717 18.5721 16.1157C18.4969 16.1597 18.4281 16.2193 18.3658 16.2944C18.2824 16.3971 18.2319 16.5034 18.2137 16.6134C18.1963 16.7225 18.2081 16.8289 18.2513 16.9316C18.2944 17.0352 18.3668 17.1287 18.4694 17.2111C18.5849 17.3045 18.7078 17.3605 18.8371 17.3798C18.9673 17.3981 19.0966 17.379 19.2259 17.3221L19.1213 17.1552C19.0599 17.1827 18.9976 17.1974 18.9344 17.1993C18.8721 17.2011 18.8106 17.1919 18.7501 17.1699C18.6896 17.1479 18.6319 17.1149 18.5759 17.0701C18.5154 17.0224 18.4659 16.9636 18.4274 16.8939C18.3899 16.8234 18.3678 16.751 18.3622 16.6758C18.3567 16.6006 18.3668 16.5263 18.3952 16.4521C18.4236 16.3779 18.4685 16.3101 18.5318 16.2478C18.5923 16.1836 18.6601 16.1386 18.7363 16.1111C18.8124 16.0836 18.8894 16.0708 18.9682 16.0727C19.0461 16.0763 19.1203 16.0946 19.1918 16.1286C19.2634 16.1615 19.3276 16.2073 19.3844 16.2652L18.5154 17.6072L19.3797 17.1929Z" fill="#FFFEFD" stroke="#FFFEFD" stroke-width="0.3"/>
<path d="M21.8737 15.3844L22.011 15.3148L21.4007 14.2129L21.2634 14.2825L21.3937 14.5703L21.379 14.5758C21.3387 14.5236 21.2928 14.4832 21.2414 14.4539C21.19 14.4228 21.1368 14.4035 21.0818 14.3952C21.0249 14.3879 20.969 14.3897 20.9121 14.4007C20.8552 14.4117 20.8011 14.4319 20.7488 14.4612C20.6241 14.5271 20.5288 14.6133 20.4647 14.7196C20.3985 14.8241 20.3637 14.9405 20.3601 15.0688C20.3546 15.1962 20.3812 15.3292 20.4399 15.4667C20.4986 15.6024 20.5692 15.7142 20.6517 15.8022C20.7342 15.8893 20.8231 15.9517 20.9194 15.9893C21.0147 16.026 21.1138 16.0388 21.2164 16.026C21.3182 16.0132 21.4199 15.974 21.5207 15.9071L21.5354 15.9126L21.4197 16.1913L21.557 16.1217L21.8737 15.3844ZM21.0387 15.7692C20.9507 15.814 20.8627 15.8341 20.7747 15.8296C20.6885 15.824 20.6088 15.7956 20.5354 15.7434C20.4629 15.6902 20.4014 15.6151 20.3519 15.5179C20.3015 15.4189 20.2721 15.3227 20.2647 15.2283C20.2575 15.1349 20.2693 15.0469 20.3015 14.9644C20.3336 14.8828 20.384 14.8094 20.4537 14.7443C20.5224 14.6792 20.6088 14.626 20.7122 14.5848C20.811 14.5455 20.9026 14.5253 20.988 14.5253C21.0724 14.5253 21.1494 14.5418 21.2182 14.5757C21.2879 14.6087 21.3486 14.6591 21.4018 14.7269C21.4541 14.7947 21.4972 14.8781 21.5311 14.9772L21.0387 15.7692Z" fill="#FFFEFD" stroke="#FFFEFD" stroke-width="0.3"/>
<path d="M24.4363 14.4447L24.563 14.3568L23.7677 13.1845L24.3644 12.7831L24.28 12.6585L23.0993 13.4521L23.1838 13.5785L23.6834 13.2402L24.4363 14.4447Z" fill="#FFFEFD" stroke="#FFFEFD" stroke-width="0.3"/>
<path d="M27.3143 12.6L27.4253 12.4937L26.7953 11.8473C26.6753 11.7236 26.5516 11.6622 26.4253 11.6622C26.298 11.6622 26.1734 11.7145 26.0516 11.819C25.9482 11.9079 25.8757 12.0151 25.8355 12.1408C25.7952 12.2673 25.8007 12.3938 25.8539 12.5203L25.9942 12.4497C25.9649 12.3719 25.9612 12.2958 25.9832 12.2224C26.0052 12.1481 26.0443 12.0802 26.1012 12.0188C26.1882 11.9271 26.278 11.8839 26.3715 11.8894C26.4632 11.8949 26.5568 11.9426 26.6503 12.0343L26.8572 12.2452L27.0218 12.0977C27.0888 12.0343 27.1565 11.9921 27.2262 11.9701C27.2949 11.9481 27.36 11.9444 27.4205 11.959C27.481 11.9737 27.5378 12.0041 27.5901 12.05C27.6433 12.0977 27.6872 12.1591 27.7212 12.2343L27.8633 12.1692C27.8092 12.0334 27.722 11.9325 27.6012 11.8674C27.4805 11.8004 27.3477 11.7947 27.2042 11.8491L27.2005 11.8344C27.2618 11.7565 27.3048 11.674 27.3277 11.5869C27.3515 11.498 27.3533 11.4137 27.3332 11.3321C27.313 11.2496 27.2728 11.1735 27.2122 11.1039C27.1527 11.0334 27.0703 10.9756 26.9652 10.9315C26.9018 10.9059 26.8385 10.8947 26.7762 10.8993C26.7148 10.9021 26.6562 10.9168 26.5992 10.9424C26.5432 10.9681 26.4918 11.0019 26.4442 11.0423C26.3984 11.0835 26.3598 11.1284 26.3268 11.1762L26.1732 11.0262C26.1365 10.9877 26.0908 10.9638 26.0358 10.9547C25.9826 10.9436 25.9267 10.9473 25.8698 10.9656C25.8138 10.9839 25.7588 11.0169 25.7047 11.0643C25.6515 11.1102 25.6047 11.1708 25.5643 11.2459L25.695 11.326C25.7298 11.2618 25.7682 11.2142 25.8103 11.1836C25.8525 11.1531 25.8956 11.139 25.9397 11.1422C25.9837 11.1449 26.0267 11.1616 26.0688 11.1928C26.1118 11.225 26.1512 11.2699 26.1878 11.3293L26.4442 11.592C26.4368 11.6037 26.4276 11.619 26.4158 11.6374C26.4048 11.6558 26.3928 11.6732 26.38 11.6897C26.3378 11.7383 26.3048 11.7769 26.28 11.8069L27.3143 12.6ZM26.9432 11.6897L26.5725 11.3147C26.6073 11.2597 26.6458 11.2121 26.688 11.1708C26.7293 11.1284 26.7725 11.0973 26.8165 11.0753C26.8605 11.0533 26.9055 11.0423 26.9505 11.0423C26.9973 11.0423 27.0422 11.0552 27.0862 11.0808C27.1668 11.1247 27.2163 11.1861 27.2345 11.2652C27.2537 11.3432 27.2373 11.4339 27.1842 11.5374C27.1512 11.602 27.1117 11.6549 27.0658 11.6952C27.0218 11.7346 26.9798 11.718 26.9432 11.6897Z" fill="#FFFEFD" stroke="#FFFEFD" stroke-width="0.3"/>
<path d="M30.5203 10.428L30.6146 10.3032L29.9626 9.78666L30.4879 9.09639L30.3936 8.97069L29.343 10.2582L29.4373 10.383L29.8696 9.85399L30.5203 10.428Z" fill="#FFFEFD" stroke="#FFFEFD" stroke-width="0.3"/>
<path d="M33.3853 9.80099L33.3303 9.64699L32.3166 9.98832L32.331 10.0029C32.384 9.96366 32.4399 9.93532 32.4986 9.91799C32.5563 9.89966 32.6149 9.89232 32.6736 9.89599C32.7323 9.89966 32.7909 9.91332 32.8496 9.93699C32.9083 9.96066 32.9623 9.99066 33.0119 10.028C33.1183 10.1013 33.1989 10.1913 33.2539 10.298C33.3098 10.4038 33.3376 10.519 33.3376 10.6432C33.3376 10.7655 33.3098 10.8899 33.2539 11.0162C33.1971 11.1416 33.1119 11.2596 32.9989 11.3706C32.8879 11.4798 32.7723 11.5595 32.6516 11.6108C32.5318 11.6612 32.4129 11.6852 32.2949 11.6815C32.1787 11.6797 32.0689 11.6521 31.9653 11.5989C31.8635 11.5465 31.7746 11.4713 31.6986 11.3743L31.5703 11.4686C31.6729 11.5989 31.7976 11.6943 31.9433 11.7548C32.0899 11.8144 32.2449 11.8384 32.4093 11.8274C32.5736 11.8154 32.7388 11.7696 32.9066 11.6888C33.0753 11.6081 33.2349 11.4915 33.3853 11.3403C33.5009 11.2247 33.5898 11.1037 33.6523 10.9765C33.7166 10.8492 33.7532 10.7228 33.7623 10.5973C33.7723 10.4718 33.7559 10.3508 33.7119 10.2352C33.6689 10.1187 33.6003 10.015 33.5066 9.92432C33.3983 9.81599 33.2762 9.74332 33.1399 9.70632C33.0037 9.66832 32.8619 9.66232 32.7159 9.69032C32.5699 9.71732 32.4266 9.77432 32.2859 9.86132L32.1833 9.94299L33.3853 9.80099Z" fill="#FFFEFD" stroke="#FFFEFD" stroke-width="0.3"/>
<path d="M38.3396 21.1406L38.4716 21.0893L38.578 21.3789L39.0913 21.1919L39.1976 21.4779L38.6843 21.6649L38.831 22.0683L38.699 22.1196L38.5523 21.7163L37.4413 22.1233C37.4166 22.1324 37.3863 22.1453 37.3496 22.1599C37.3148 22.1764 37.2855 22.1966 37.2616 22.2186C37.2369 22.2406 37.2186 22.2663 37.2066 22.2956C37.1966 22.3268 37.1993 22.3634 37.214 22.4056C37.2332 22.4588 37.269 22.4954 37.3203 22.5156C37.3735 22.5348 37.4276 22.5486 37.4816 22.5559L37.3826 22.7686C37.2305 22.6998 37.1306 22.5972 37.082 22.4606C37.06 22.4019 37.0471 22.3405 37.0453 22.2773C37.0453 22.2158 37.0572 22.1563 37.082 22.0976C37.1086 22.0408 37.1489 21.9858 37.203 21.9326C37.2589 21.8813 37.3295 21.8391 37.4156 21.8079L38.446 21.4303L38.3396 21.1406Z" fill="#FFFEFD" stroke="#FFFEFD" stroke-width="0.3"/>
<path d="M39.0586 25.2649C39.1246 25.2576 39.1814 25.2338 39.2309 25.1953C39.2823 25.1559 39.3235 25.1045 39.3556 25.0413C39.3868 24.9799 39.4088 24.9093 39.4216 24.8286C39.4363 24.7498 39.4372 24.6673 39.4253 24.5793C39.4152 24.4986 39.3959 24.4225 39.3666 24.3519C39.3373 24.2832 39.2979 24.2245 39.2493 24.1759C39.1998 24.1292 39.1429 24.0934 39.0769 24.0696C39.0109 24.0476 38.9358 24.0412 38.8533 24.0513C38.7405 24.0659 38.6534 24.1026 38.5929 24.1613C38.5343 24.2199 38.4884 24.2905 38.4573 24.3739C38.4279 24.4564 38.4069 24.5444 38.3949 24.6379C38.3821 24.7333 38.3656 24.8213 38.3436 24.9019C38.3234 24.9844 38.2941 25.0541 38.2556 25.1109C38.2189 25.1696 38.1612 25.2035 38.0833 25.2136C38.0484 25.2154 38.0136 25.2136 37.9769 25.2063C37.9421 25.2008 37.9082 25.1852 37.8743 25.1586C37.8422 25.1339 37.8129 25.0981 37.7863 25.0523C37.7588 25.0055 37.7404 24.9441 37.7313 24.8689C37.7212 24.7754 37.7258 24.6948 37.7459 24.6269C37.7679 24.5582 37.7954 24.5004 37.8303 24.4546C37.8669 24.4079 37.9045 24.3721 37.9439 24.3483C37.9852 24.3263 38.0209 24.3125 38.0503 24.3079L38.0246 24.0806C37.9586 24.0879 37.8963 24.1109 37.8376 24.1503C37.7789 24.1888 37.7285 24.2419 37.6873 24.3079C37.6451 24.3758 37.6149 24.4564 37.5956 24.5499C37.5754 24.6453 37.5736 24.7525 37.5883 24.8726C37.6121 25.0899 37.6799 25.2475 37.7899 25.3456C37.8999 25.4428 38.0319 25.4822 38.1859 25.4629C38.3005 25.4501 38.3885 25.4134 38.4499 25.3529C38.5104 25.2915 38.5572 25.2182 38.5893 25.1329C38.6204 25.0495 38.6443 24.9588 38.6589 24.8616C38.6736 24.7635 38.6892 24.6728 38.7066 24.5903C38.7259 24.5096 38.7524 24.4399 38.7873 24.3813C38.8212 24.3226 38.8734 24.2878 38.9449 24.2786C38.9761 24.2759 39.0091 24.2786 39.0439 24.2859C39.0806 24.2933 39.1145 24.3089 39.1466 24.3336C39.1805 24.3574 39.2099 24.3923 39.2346 24.4363C39.2612 24.4821 39.2795 24.5399 39.2896 24.6086C39.2969 24.6792 39.2933 24.7415 39.2786 24.7956C39.2658 24.8515 39.2465 24.8992 39.2199 24.9386C39.1952 24.9771 39.1659 25.0083 39.1319 25.0303C39.0999 25.0523 39.0678 25.0642 39.0366 25.0669L39.0586 25.2649Z" fill="#FFFEFD" stroke="#FFFEFD" stroke-width="0.3"/>
</g>
<mask id="mask3_1067_686" style="mask-type:luminance" maskUnits="userSpaceOnUse" x="59" y="60" width="6" height="7">
<path d="M59.2497 60.9308H64.2987V66.0348H59.2497V60.9308Z" fill="white"/>
</mask>
<g mask="url(#mask3_1067_686)">
<path d="M61.7577 60.9308C61.5129 62.9961 61.3149 63.1941 59.2497 63.4388C59.2533 63.4397 59.2579 63.4397 59.2625 63.4407C61.3158 63.6845 61.5138 63.8862 61.7577 65.9468C62.0015 63.8816 62.1995 63.6836 64.2657 63.4388C62.1995 63.1941 62.0015 62.9961 61.7577 60.9308Z" fill="#FFFEFD" stroke="#FFFEFD" stroke-width="0.8"/>
</g>
<mask id="mask4_1067_686" style="mask-type:luminance" maskUnits="userSpaceOnUse" x="23" y="22" width="6" height="6">
<path d="M23.287 22.5051H28.391V27.6091H23.287V22.5051Z" fill="white"/>
</mask>
<g mask="url(#mask4_1067_686)">
<path d="M25.795 22.5051C25.5503 24.5703 25.3523 24.7683 23.287 25.0131C23.2907 25.0131 23.2953 25.014 23.2989 25.014H23.2998C25.3532 25.2578 25.5503 25.4595 25.795 27.5211C26.0388 25.4549 26.2368 25.2569 28.303 25.0131C26.2368 24.7683 26.0388 24.5703 25.795 22.5051Z" fill="#FFFEFD" stroke="#FFFEFD" stroke-width="0.8"/>
</g>
</g>
<defs>
<clipPath id="clip0_1067_686">
<rect width="88" height="88" fill="white"/>
</clipPath>
</defs>
</svg>